<svg width="404" height="149" version="1.1" xmlns="http://www.w3.org/2000/svg" desc="Created with imagetracer.js version 1.2.6" ><path fill="rgb(127,199,232)" stroke="rgb(127,199,232)" stroke-width="1" opacity="0.9803921568627451" d="M 0 0 Q 11.5 1.8 18 9.5 Q 28 20 25 43.5 L 24 48.5 L 21.5 51 L 18.5 47 L 16.5 47 Q 13.9 47.7 15 45 L 12.5 45 L 1 39 L 0.5 52 L 0 0 Z " /><path fill="rgb(127,199,232)" stroke="rgb(127,199,232)" stroke-width="1" opacity="0.9803921568627451" d="M 47.5 26 Q 77.8 25.8 91 42.5 L 100 55.5 L 101 61 L 75.5 61 L 58.5 52 L 46.5 52 L 44.5 53 L 42.5 53 L 35 54 Q 36.1 56.7 33.5 56 Q 30.7 54.8 33 53.5 L 31 49.5 L 31 31.5 L 34.5 29 L 47.5 26 Z " /><path fill="rgb(127,199,232)" stroke="rgb(127,199,232)" stroke-width="1" opacity="0.9803921568627451" d="M 74.5 66 L 94.5 66 L 102 70.5 L 105 77.5 Q 102.3 79.3 104 85.5 L 102.5 87 L 98.5 86 Q 97 88.5 95.5 85 L 82 79 Q 83.3 75.3 77.5 77 L 68.5 70 L 66.5 70 L 63 69.5 L 66.5 67 Q 72.8 68.8 74.5 66 Z " /><path fill="rgb(8,8,12)" stroke="rgb(8,8,12)" stroke-width="1" opacity="0.11764705882352941" d="M 321.5 31 L 326 31.5 L 321.5 32 L 321.5 31 Z " /><path fill="rgb(8,8,12)" stroke="rgb(8,8,12)" stroke-width="1" opacity="0.11764705882352941" d="M 185.5 32 L 187 32.5 L 184.5 34 L 185.5 32 Z " /><path fill="rgb(8,8,12)" stroke="rgb(8,8,12)" stroke-width="1" opacity="0.11764705882352941" d="M 235.5 32 L 237.5 35 L 235.5 32 Z " /><path fill="rgb(8,8,12)" stroke="rgb(8,8,12)" stroke-width="1" opacity="0.11764705882352941" d="M 254.5 32 L 252.5 35 L 254.5 32 Z " /><path fill="rgb(8,8,12)" stroke="rgb(8,8,12)" stroke-width="1" opacity="0.11764705882352941" d="M 265.5 32 L 266 33.5 L 264 34.5 L 265.5 32 Z " /><path fill="rgb(8,8,12)" stroke="rgb(8,8,12)" stroke-width="1" opacity="0.11764705882352941" d="M 293.5 32 L 296 32.5 L 293.5 33 L 293.5 32 Z " /><path fill="rgb(8,8,12)" stroke="rgb(8,8,12)" stroke-width="1" opacity="0.11764705882352941" d="M 318.5 32 L 316.5 35 L 316 33 L 318.5 32 Z " /><path fill="rgb(8,8,12)" stroke="rgb(8,8,12)" stroke-width="1" opacity="0.11764705882352941" d="M 328.5 32 L 331.5 36 L 328.5 32 Z " /><path fill="rgb(8,8,12)" stroke="rgb(8,8,12)" stroke-width="1" opacity="0.11764705882352941" d="M 357.5 32 L 358 62.5 L 357 62.5 L 357.5 32 Z " /><path fill="rgb(8,8,12)" stroke="rgb(8,8,12)" stroke-width="1" opacity="0.11764705882352941" d="M 172.5 33 L 175.5 37 L 172.5 33 Z " /><path fill="rgb(8,8,12)" stroke="rgb(8,8,12)" stroke-width="1" opacity="0.11764705882352941" d="M 139.5 34 L 140 64.5 L 139 64.5 L 139.5 34 Z " /><path fill="rgb(8,8,12)" stroke="rgb(8,8,12)" stroke-width="1" opacity="0.11764705882352941" d="M 273.5 34 L 272.5 36 L 273.5 34 Z " /><path fill="rgb(8,8,12)" stroke="rgb(8,8,12)" stroke-width="1" opacity="0.11764705882352941" d="M 300.5 34 L 301.5 36 L 300.5 34 Z " /><path fill="rgb(8,8,12)" stroke="rgb(8,8,12)" stroke-width="1" opacity="0.11764705882352941" d="M 395.5 34 L 396.5 36 L 395.5 34 Z " /><path fill="rgb(8,8,12)" stroke="rgb(8,8,12)" stroke-width="1" opacity="0.11764705882352941" d="M 228.5 38 L 232.5 43 L 228.5 38 Z " /><path fill="rgb(8,8,12)" stroke="rgb(8,8,12)" stroke-width="1" opacity="0.11764705882352941" d="M 240.5 38 L 243 39 L 244.5 42 L 248.5 39 L 245.5 43 L 240.5 38 Z " /><path fill="rgb(8,8,12)" stroke="rgb(8,8,12)" stroke-width="1" opacity="0.11764705882352941" d="M 260.5 39 L 255.5 45 L 260.5 39 Z " /><path fill="rgb(8,8,12)" stroke="rgb(8,8,12)" stroke-width="1" opacity="0.11764705882352941" d="M 268.5 39 L 267.5 41 L 268.5 39 Z " /><path fill="rgb(8,8,12)" stroke="rgb(8,8,12)" stroke-width="1" opacity="0.11764705882352941" d="M 305.5 39 L 306.5 41 L 305.5 39 Z " /><path fill="rgb(8,8,12)" stroke="rgb(8,8,12)" stroke-width="1" opacity="0.11764705882352941" d="M 334.5 39 L 335.5 41 L 334.5 39 Z " /><path fill="rgb(8,8,12)" stroke="rgb(8,8,12)" stroke-width="1" opacity="0.11764705882352941" d="M 150.5 41 L 165.5 41 L 167 42.5 L 165.5 42 L 162.5 43 L 161.5 42 L 150.5 42 L 150.5 41 Z " /><path fill="rgb(8,8,12)" stroke="rgb(8,8,12)" stroke-width="1" opacity="0.11764705882352941" d="M 294.5 42 L 295.5 44 L 294.5 42 Z " /><path fill="rgb(8,8,12)" stroke="rgb(8,8,12)" stroke-width="1" opacity="0.11764705882352941" d="M 374.5 42 L 375 56.5 L 374 56.5 L 374.5 42 Z " /><path fill="rgb(8,8,12)" stroke="rgb(8,8,12)" stroke-width="1" opacity="0.11764705882352941" d="M 389.5 42 L 390.5 44 L 389.5 42 Z " /><path fill="rgb(8,8,12)" stroke="rgb(8,8,12)" stroke-width="1" opacity="0.11764705882352941" d="M 325.5 43 L 329.5 48 L 325.5 43 Z " /><path fill="rgb(8,8,12)" stroke="rgb(8,8,12)" stroke-width="1" opacity="0.11764705882352941" d="M 339.5 45 L 340.5 47 L 339.5 45 Z " /><path fill="rgb(8,8,12)" stroke="rgb(8,8,12)" stroke-width="1" opacity="0.11764705882352941" d="M 235.5 46 L 239.5 51 L 235.5 46 Z " /><path fill="rgb(8,8,12)" stroke="rgb(8,8,12)" stroke-width="1" opacity="0.11764705882352941" d="M 175.5 48 L 176.5 52 Q 172 50 175.5 48 Z " /><path fill="rgb(8,8,12)" stroke="rgb(8,8,12)" stroke-width="1" opacity="0.11764705882352941" d="M 250.5 50 L 250 51.5 L 249.5 67 L 249 51.5 L 250.5 50 Z " /><path fill="rgb(8,8,12)" stroke="rgb(8,8,12)" stroke-width="1" opacity="0.11764705882352941" d="M 343.5 50 L 347.5 55 L 343.5 50 Z " /><path fill="rgb(8,8,12)" stroke="rgb(8,8,12)" stroke-width="1" opacity="0.11764705882352941" d="M 332.5 51 L 335.5 55 L 332.5 51 Z " /><path fill="rgb(8,8,12)" stroke="rgb(8,8,12)" stroke-width="1" opacity="0.11764705882352941" d="M 393.5 52 L 392.5 54 L 393.5 52 Z " /><path fill="rgb(8,8,12)" stroke="rgb(8,8,12)" stroke-width="1" opacity="0.11764705882352941" d="M 295.5 55 L 294.5 57 L 293 56.5 L 295.5 55 Z " /><path fill="rgb(8,8,12)" stroke="rgb(8,8,12)" stroke-width="1" opacity="0.11764705882352941" d="M 402.5 55 L 403 56.5 L 400.5 60 L 401 58.5 L 402.5 55 Z " /><path fill="rgb(8,8,12)" stroke="rgb(8,8,12)" stroke-width="1" opacity="0.11764705882352941" d="M 267.5 58 L 268.5 60 L 267.5 58 Z " /><path fill="rgb(8,8,12)" stroke="rgb(8,8,12)" stroke-width="1" opacity="0.11764705882352941" d="M 306.5 58 L 305.5 60 L 306.5 58 Z " /><path fill="rgb(8,8,12)" stroke="rgb(8,8,12)" stroke-width="1" opacity="0.11764705882352941" d="M 338.5 58 L 341.5 62 L 338.5 58 Z " /><path fill="rgb(8,8,12)" stroke="rgb(8,8,12)" stroke-width="1" opacity="0.11764705882352941" d="M 301.5 63 L 300.5 65 L 301.5 63 Z " /><path fill="rgb(8,8,12)" stroke="rgb(8,8,12)" stroke-width="1" opacity="0.11764705882352941" d="M 396.5 63 L 395.5 65 L 396.5 63 Z " /><path fill="rgb(8,8,12)" stroke="rgb(8,8,12)" stroke-width="1" opacity="0.11764705882352941" d="M 356.5 64 L 353.5 68 L 356.5 64 Z " /><path fill="rgb(8,8,12)" stroke="rgb(8,8,12)" stroke-width="1" opacity="0.11764705882352941" d="M 139.5 66 L 141 66.5 L 138.5 68 L 139.5 66 Z " /><path fill="rgb(8,8,12)" stroke="rgb(8,8,12)" stroke-width="1" opacity="0.11764705882352941" d="M 169.5 66 L 171 66.5 L 168.5 68 L 169.5 66 Z " /><path fill="rgb(8,8,12)" stroke="rgb(8,8,12)" stroke-width="1" opacity="0.11764705882352941" d="M 349.5 67 L 352 67.5 L 349.5 68 L 349.5 67 Z " /><path fill="rgb(8,8,12)" stroke="rgb(8,8,12)" stroke-width="1" opacity="0.11764705882352941" d="M 241.5 78 L 240.5 80 L 241.5 78 Z " /><path fill="rgb(8,8,12)" stroke="rgb(8,8,12)" stroke-width="1" opacity="0.11764705882352941" d="M 208.5 79 L 211 80.5 L 209.5 80 L 208.5 79 Z " /><path fill="rgb(8,8,12)" stroke="rgb(8,8,12)" stroke-width="1" opacity="0.11764705882352941" d="M 198.5 80 L 195.5 84 L 198.5 80 Z " /><path fill="rgb(8,8,12)" stroke="rgb(8,8,12)" stroke-width="1" opacity="0.11764705882352941" d="M 273.5 80 L 271.5 83 L 273.5 80 Z " /><path fill="rgb(8,8,12)" stroke="rgb(8,8,12)" stroke-width="1" opacity="0.11764705882352941" d="M 284.5 80 L 286.5 83 L 284.5 80 Z " /><path fill="rgb(8,8,12)" stroke="rgb(8,8,12)" stroke-width="1" opacity="0.11764705882352941" d="M 316.5 80 L 314.5 83 L 316.5 80 Z " /><path fill="rgb(8,8,12)" stroke="rgb(8,8,12)" stroke-width="1" opacity="0.11764705882352941" d="M 347.5 80 L 348 103 L 346 102.5 L 347 101.5 L 347.5 80 Z " /><path fill="rgb(8,8,12)" stroke="rgb(8,8,12)" stroke-width="1" opacity="0.11764705882352941" d="M 357.5 80 L 358 110.5 L 357 110.5 L 357.5 80 Z " /><path fill="rgb(8,8,12)" stroke="rgb(8,8,12)" stroke-width="1" opacity="0.11764705882352941" d="M 329.5 82 L 331.5 85 L 329.5 82 Z " /><path fill="rgb(8,8,12)" stroke="rgb(8,8,12)" stroke-width="1" opacity="0.11764705882352941" d="M 235.5 83 L 235 84.5 L 234.5 86 L 234 84.5 L 235.5 83 Z " /><path fill="rgb(8,8,12)" stroke="rgb(8,8,12)" stroke-width="1" opacity="0.11764705882352941" d="M 251.5 83 L 252.5 85 L 251.5 83 Z " /><path fill="rgb(8,8,12)" stroke="rgb(8,8,12)" stroke-width="1" opacity="0.11764705882352941" d="M 369.5 84 L 368.5 86 L 369.5 84 Z " /><path fill="rgb(8,8,12)" stroke="rgb(8,8,12)" stroke-width="1" opacity="0.11764705882352941" d="M 313.5 85 L 314 115 L 323 115.5 L 313 116 L 313.5 85 Z " /><path fill="rgb(8,8,12)" stroke="rgb(8,8,12)" stroke-width="1" opacity="0.11764705882352941" d="M 333.5 87 L 336.5 91 L 333.5 87 Z " /><path fill="rgb(8,8,12)" stroke="rgb(8,8,12)" stroke-width="1" opacity="0.11764705882352941" d="M 288.5 88 L 289 116 L 279 115.5 L 288 115 L 288.5 88 Z " /><path fill="rgb(8,8,12)" stroke="rgb(8,8,12)" stroke-width="1" opacity="0.11764705882352941" d="M 278.5 91 L 277.5 93 L 278.5 91 Z " /><path fill="rgb(8,8,12)" stroke="rgb(8,8,12)" stroke-width="1" opacity="0.11764705882352941" d="M 323.5 91 L 327 93.5 L 324.5 92 L 323.5 91 Z " /><path fill="rgb(8,8,12)" stroke="rgb(8,8,12)" stroke-width="1" opacity="0.11764705882352941" d="M 377.5 91 L 375.5 94 L 377.5 91 Z " /><path fill="rgb(8,8,12)" stroke="rgb(8,8,12)" stroke-width="1" opacity="0.11764705882352941" d="M 338.5 93 L 341.5 97 L 338.5 93 Z " /><path fill="rgb(8,8,12)" stroke="rgb(8,8,12)" stroke-width="1" opacity="0.11764705882352941" d="M 330.5 98 L 332.5 101 L 330.5 98 Z " /><path fill="rgb(8,8,12)" stroke="rgb(8,8,12)" stroke-width="1" opacity="0.11764705882352941" d="M 343.5 99 L 344.5 101 L 343.5 99 Z " /><path fill="rgb(8,8,12)" stroke="rgb(8,8,12)" stroke-width="1" opacity="0.11764705882352941" d="M 149.5 102 L 150.5 104 L 149.5 102 Z " /><path fill="rgb(8,8,12)" stroke="rgb(8,8,12)" stroke-width="1" opacity="0.11764705882352941" d="M 271.5 104 L 272 105.5 L 270 106.5 L 271.5 104 Z " /><path fill="rgb(8,8,12)" stroke="rgb(8,8,12)" stroke-width="1" opacity="0.11764705882352941" d="M 336.5 105 L 338.5 108 L 336.5 105 Z " /><path fill="rgb(8,8,12)" stroke="rgb(8,8,12)" stroke-width="1" opacity="0.11764705882352941" d="M 141.5 108 L 145.5 113 L 141.5 108 Z " /><path fill="rgb(8,8,12)" stroke="rgb(8,8,12)" stroke-width="1" opacity="0.11764705882352941" d="M 367.5 108 L 370.5 112 L 367.5 108 Z " /><path fill="rgb(8,8,12)" stroke="rgb(8,8,12)" stroke-width="1" opacity="0.11764705882352941" d="M 342.5 112 L 347 115.5 L 345.5 116 L 342.5 112 Z " /><path fill="rgb(8,8,12)" stroke="rgb(8,8,12)" stroke-width="1" opacity="0.11764705882352941" d="M 181.5 113 L 182 115 L 193 115.5 L 181 116 L 181.5 113 Z " /><path fill="rgb(8,8,12)" stroke="rgb(8,8,12)" stroke-width="1" opacity="0.11764705882352941" d="M 216.5 113 L 217 115 L 228 115.5 L 217.5 116 L 216.5 117 L 216 114.5 L 216.5 113 Z " /><path fill="rgb(8,8,12)" stroke="rgb(8,8,12)" stroke-width="1" opacity="0.11764705882352941" d="M 149.5 114 L 150.5 116 L 149.5 114 Z " /><path fill="rgb(8,8,12)" stroke="rgb(8,8,12)" stroke-width="1" opacity="0.11764705882352941" d="M 233.5 114 L 234.5 115 L 243.5 115 L 245 114.5 L 243.5 116 L 234.5 116 L 233.5 114 Z " /><path fill="rgb(8,8,12)" stroke="rgb(8,8,12)" stroke-width="1" opacity="0.11764705882352941" d="M 306.5 114 L 305.5 116 L 296 115.5 L 305.5 115 L 306.5 114 Z " /><path fill="rgb(8,8,12)" stroke="rgb(8,8,12)" stroke-width="1" opacity="0.11764705882352941" d="M 153.5 115 L 175 115.5 L 153.5 116 L 153.5 115 Z " /><path fill="rgb(8,8,12)" stroke="rgb(8,8,12)" stroke-width="1" opacity="0.11764705882352941" d="M 379.5 115 L 401 115.5 L 379.5 116 L 379.5 115 Z " /><path fill="rgb(0,0,0)" stroke="rgb(0,0,0)" stroke-width="1" opacity="0" d="M 7.5 0 L 403.5 0 L 404 0.5 L 404 45.5 L 403 45.5 L 403 42.5 L 395.5 34 L 390.5 32 L 365 32 L 365 67 L 389.5 67 Q 398.4 65.4 402 58.5 L 403.5 53 L 404 149 L 105 148.5 L 106 147.5 L 106 107.5 L 105 106.5 L 105 96.5 L 106 95.5 L 106 74.5 L 100.5 67 L 95.5 65 L 70.5 65 L 68.5 65 L 58.5 67 L 48 75.5 L 43 85.5 L 43 91.5 Q 44.3 94.3 45.5 92 L 79 92 L 79 112.5 L 80 115.5 L 80 117.5 L 81 131.5 L 84 137.5 L 89.5 143 L 101 148.5 L 0 149 L 0.5 90 Q 4.5 110 18.5 120 L 36.5 130 L 44.5 132 L 62.5 132 L 74 127.5 L 74 96.5 L 72.5 96 L 68 99 Q 69.1 101.7 66.5 101 L 61.5 104 L 57.5 104 L 56 103.5 L 55.5 105 L 48.5 105 L 45 104 L 44.5 102 L 42.5 103 L 31 94.5 L 26 81.5 L 26 37.5 L 27 32.5 L 26 29.5 L 26 27.5 L 24 17.5 L 17 6 L 7.5 1 L 7.5 0 Z M 48 25 L 32 29 L 29 33 Q 27 39 30 41 L 30 49 L 29 50 L 30 52 L 30 63 Q 33 64 32 62 L 41 55 L 49 53 Q 61 52 67 58 Q 69 57 68 60 L 73 62 L 94 62 L 96 62 L 99 63 L 102 62 L 102 57 L 95 46 Q 87 35 74 29 L 58 25 L 48 25 Z M 322 31 L 316 33 L 315 37 L 315 67 L 316 67 L 325 67 L 326 44 L 344 66 L 352 68 L 354 68 L 358 63 L 358 33 L 358 32 L 348 32 L 348 54 L 338 44 Q 339 41 336 42 L 332 36 Q 330 30 322 31 Z M 140 32 L 139 35 L 139 65 L 139 67 L 168 67 L 169 68 L 173 66 L 178 59 Q 179 52 175 50 L 177 47 Q 178 40 176 37 L 170 32 L 140 32 Z M 186 32 L 183 36 L 183 64 L 184 66 L 187 67 L 218 67 L 219 68 L 219 67 L 219 65 L 219 58 L 219 57 L 193 57 L 194 53 L 217 53 Q 218 55 219 53 Q 220 46 219 46 L 193 46 L 194 42 L 219 42 L 219 33 L 219 32 L 186 32 Z M 224 32 L 240 52 L 240 67 L 250 67 L 250 52 L 251 51 Q 250 48 253 49 L 266 34 L 266 32 L 255 32 L 246 42 L 243 41 Q 244 38 242 39 L 238 35 L 236 32 L 224 32 Z M 279 32 L 274 34 Q 267 38 265 47 L 265 53 L 267 59 Q 271 65 280 67 Q 293 69 301 65 Q 307 61 309 53 L 309 47 L 307 41 Q 303 34 296 32 L 279 32 Z M 242 78 L 239 80 L 234 85 L 234 114 Q 232 115 235 116 L 244 116 L 245 115 L 244 114 L 244 95 L 245 92 L 255 114 L 258 116 Q 264 117 267 115 L 279 92 L 279 96 L 279 98 L 279 116 L 289 116 L 289 89 L 287 83 L 283 79 L 274 80 L 269 86 L 262 103 L 253 85 L 249 80 L 242 78 Z M 201 79 L 199 80 L 195 84 L 181 114 L 182 116 L 193 116 L 194 112 L 196 110 L 215 110 L 216 115 L 218 116 L 228 116 L 227 111 L 215 85 L 210 79 L 201 79 Z M 319 79 L 317 80 L 313 86 L 313 116 L 323 116 L 323 93 L 325 92 L 334 103 Q 333 105 336 104 L 342 113 L 346 116 L 355 116 L 358 111 L 358 80 L 347 80 L 347 102 L 345 102 L 332 85 Q 330 77 319 79 Z M 151 80 L 143 84 L 138 94 Q 137 104 141 109 L 149 114 Q 150 117 152 115 L 154 116 L 175 116 L 176 115 L 176 96 L 166 96 L 166 105 L 165 106 L 153 105 L 148 99 L 150 92 L 155 90 L 176 90 L 176 80 L 151 80 Z M 296 80 L 296 116 L 297 116 L 306 116 Q 308 115 306 114 L 306 81 L 306 80 L 296 80 Z M 377 80 L 370 84 Q 365 88 364 95 Q 363 104 367 109 Q 371 114 380 116 L 401 116 L 402 115 L 402 96 L 392 96 L 392 106 L 382 106 L 379 104 Q 376 105 377 102 L 375 102 L 374 99 L 375 95 L 381 90 L 402 90 L 402 80 L 377 80 Z " /><path fill="rgb(0,0,0)" stroke="rgb(0,0,0)" stroke-width="1" opacity="0" d="M 149 42 L 161.5 42 L 162.5 43 L 165.5 42 L 167 44.5 L 165.5 46 L 149 46 L 149 42 Z " /><path fill="rgb(0,0,0)" stroke="rgb(0,0,0)" stroke-width="1" opacity="0" d="M 280.5 42 L 293.5 42 L 297 44 L 299 48.5 L 298 51.5 L 297 55 Q 292.5 58.6 281.5 57 L 276 53.5 L 275 47.5 L 278.5 43 L 280.5 42 Z " /><path fill="rgb(0,0,0)" stroke="rgb(0,0,0)" stroke-width="1" opacity="0" d="M 375 42 L 388.5 42 L 392 44 L 394 51.5 L 392 55 L 387.5 57 L 375 57 L 375 42 Z " /><path fill="rgb(0,0,0)" stroke="rgb(0,0,0)" stroke-width="1" opacity="0" d="M 149 53 L 165.5 53 L 167 54.5 Q 168.1 57.8 165.5 57 L 164.5 58 L 151.5 58 L 149 57 L 149 53 Z " /><path fill="rgb(0,0,0)" stroke="rgb(0,0,0)" stroke-width="1" opacity="0" d="M 204.5 89 L 211 101.5 L 199 102 L 204.5 89 Z " /><path fill="rgb(21,21,22)" stroke="rgb(21,21,22)" stroke-width="1" opacity="0.7098039215686275" d="M 144.5 32 L 169 32.5 L 144.5 33 L 144.5 32 Z " /><path fill="rgb(21,21,22)" stroke="rgb(21,21,22)" stroke-width="1" opacity="0.7098039215686275" d="M 191.5 32 L 210 32.5 L 191.5 33 L 191.5 32 Z " /><path fill="rgb(21,21,22)" stroke="rgb(21,21,22)" stroke-width="1" opacity="0.7098039215686275" d="M 224 32 L 227 32.5 L 224.5 34 L 224 32 Z " /><path fill="rgb(21,21,22)" stroke="rgb(21,21,22)" stroke-width="1" opacity="0.7098039215686275" d="M 255.5 32 L 262 32.5 L 255.5 33 L 255.5 32 Z " /><path fill="rgb(21,21,22)" stroke="rgb(21,21,22)" stroke-width="1" opacity="0.7098039215686275" d="M 288.5 32 L 292 32.5 L 288.5 33 L 288.5 32 Z " /><path fill="rgb(21,21,22)" stroke="rgb(21,21,22)" stroke-width="1" opacity="0.7098039215686275" d="M 366.5 32 L 389 32.5 L 366.5 33 L 365.5 34 L 366.5 32 Z " /><path fill="rgb(21,21,22)" stroke="rgb(21,21,22)" stroke-width="1" opacity="0.7098039215686275" d="M 332.5 37 L 333.5 39 L 332.5 37 Z " /><path fill="rgb(21,21,22)" stroke="rgb(21,21,22)" stroke-width="1" opacity="0.7098039215686275" d="M 348.5 40 L 349 48.5 L 348 48.5 L 348.5 40 Z " /><path fill="rgb(21,21,22)" stroke="rgb(21,21,22)" stroke-width="1" opacity="0.7098039215686275" d="M 153.5 46 L 156 46.5 L 153.5 47 L 153.5 46 Z " /><path fill="rgb(21,21,22)" stroke="rgb(21,21,22)" stroke-width="1" opacity="0.7098039215686275" d="M 160.5 46 L 163 46.5 L 160.5 47 L 160.5 46 Z " /><path fill="rgb(21,21,22)" stroke="rgb(21,21,22)" stroke-width="1" opacity="0.7098039215686275" d="M 403.5 48 L 404 50.5 L 403 50.5 L 403.5 48 Z " /><path fill="rgb(21,21,22)" stroke="rgb(21,21,22)" stroke-width="1" opacity="0.7098039215686275" d="M 151.5 52 L 161 52.5 L 151.5 53 L 151.5 52 Z " /><path fill="rgb(21,21,22)" stroke="rgb(21,21,22)" stroke-width="1" opacity="0.7098039215686275" d="M 194.5 52 L 198 52.5 L 194.5 53 L 194.5 52 Z " /><path fill="rgb(21,21,22)" stroke="rgb(21,21,22)" stroke-width="1" opacity="0.7098039215686275" d="M 199.5 52 L 216 52.5 L 199.5 53 L 199.5 52 Z " /><path fill="rgb(21,21,22)" stroke="rgb(21,21,22)" stroke-width="1" opacity="0.7098039215686275" d="M 324.5 56 L 325 65.5 L 324 65.5 L 324.5 56 Z " /><path fill="rgb(21,21,22)" stroke="rgb(21,21,22)" stroke-width="1" opacity="0.7098039215686275" d="M 194.5 57 L 197 57.5 L 194.5 58 L 194.5 57 Z " /><path fill="rgb(21,21,22)" stroke="rgb(21,21,22)" stroke-width="1" opacity="0.7098039215686275" d="M 198.5 57 L 217 57.5 L 198.5 58 L 198.5 57 Z " /><path fill="rgb(21,21,22)" stroke="rgb(21,21,22)" stroke-width="1" opacity="0.7098039215686275" d="M 282.5 57 L 289 57.5 L 282.5 58 L 282.5 57 Z " /><path fill="rgb(21,21,22)" stroke="rgb(21,21,22)" stroke-width="1" opacity="0.7098039215686275" d="M 376.5 57 L 386 57.5 L 376.5 58 L 376.5 57 Z " /><path fill="rgb(21,21,22)" stroke="rgb(21,21,22)" stroke-width="1" opacity="0.7098039215686275" d="M 142.5 66 L 169 66.5 L 142.5 67 L 142.5 66 Z " /><path fill="rgb(21,21,22)" stroke="rgb(21,21,22)" stroke-width="1" opacity="0.7098039215686275" d="M 190.5 66 L 217 66.5 L 190.5 67 L 190.5 66 Z " /><path fill="rgb(21,21,22)" stroke="rgb(21,21,22)" stroke-width="1" opacity="0.7098039215686275" d="M 241.5 66 L 249 66.5 L 241.5 67 L 241.5 66 Z " /><path fill="rgb(21,21,22)" stroke="rgb(21,21,22)" stroke-width="1" opacity="0.7098039215686275" d="M 288.5 66 L 292 66.5 L 288.5 67 L 288.5 66 Z " /><path fill="rgb(21,21,22)" stroke="rgb(21,21,22)" stroke-width="1" opacity="0.7098039215686275" d="M 368.5 66 L 386 66.5 L 368.5 67 L 368.5 66 Z " /><path fill="rgb(21,21,22)" stroke="rgb(21,21,22)" stroke-width="1" opacity="0.7098039215686275" d="M 203.5 79 L 208 79.5 L 203.5 80 L 203.5 79 Z " /><path fill="rgb(21,21,22)" stroke="rgb(21,21,22)" stroke-width="1" opacity="0.7098039215686275" d="M 276.5 79 L 281 79.5 L 276.5 80 L 276.5 79 Z " /><path fill="rgb(21,21,22)" stroke="rgb(21,21,22)" stroke-width="1" opacity="0.7098039215686275" d="M 320.5 79 L 325 79.5 L 320.5 80 L 320.5 79 Z " /><path fill="rgb(21,21,22)" stroke="rgb(21,21,22)" stroke-width="1" opacity="0.7098039215686275" d="M 249.5 81 L 250.5 83 L 249.5 81 Z " /><path fill="rgb(21,21,22)" stroke="rgb(21,21,22)" stroke-width="1" opacity="0.7098039215686275" d="M 175.5 84 L 176 87.5 L 175 87.5 L 175.5 84 Z " /><path fill="rgb(21,21,22)" stroke="rgb(21,21,22)" stroke-width="1" opacity="0.7098039215686275" d="M 155.5 89 L 159 89.5 L 155.5 90 L 155.5 89 Z " /><path fill="rgb(21,21,22)" stroke="rgb(21,21,22)" stroke-width="1" opacity="0.7098039215686275" d="M 383.5 89 L 392 89.5 L 383.5 90 L 383.5 89 Z " /><path fill="rgb(21,21,22)" stroke="rgb(21,21,22)" stroke-width="1" opacity="0.7098039215686275" d="M 243.5 93 L 244 95.5 L 243 95.5 L 243.5 93 Z " /><path fill="rgb(21,21,22)" stroke="rgb(21,21,22)" stroke-width="1" opacity="0.7098039215686275" d="M 392.5 96 L 393 104.5 L 392 104.5 L 392.5 96 Z " /><path fill="rgb(21,21,22)" stroke="rgb(21,21,22)" stroke-width="1" opacity="0.7098039215686275" d="M 166.5 98 L 167 102.5 L 166 102.5 L 166.5 98 Z " /><path fill="rgb(21,21,22)" stroke="rgb(21,21,22)" stroke-width="1" opacity="0.7098039215686275" d="M 243.5 99 L 244 102.5 L 243 102.5 L 243.5 99 Z " /><path fill="rgb(21,21,22)" stroke="rgb(21,21,22)" stroke-width="1" opacity="0.7098039215686275" d="M 243.5 104 L 244 113.5 L 243 113.5 L 243.5 104 Z " /><path fill="rgb(21,21,22)" stroke="rgb(21,21,22)" stroke-width="1" opacity="0.7098039215686275" d="M 305.5 107 L 306 109.5 L 305 109.5 L 305.5 107 Z " /><path fill="rgb(167,44,189)" stroke="rgb(167,44,189)" stroke-width="1" opacity="0.9882352941176471" d="M 1.5 69 L 2 71 L 18 78.5 Q 16.9 81.8 19.5 81 L 22.5 80 L 25 81.5 Q 22.5 83 26 84.5 Q 28.4 95.6 36.5 101 L 47.5 106 L 57.5 106 L 69.5 100 L 68 102.5 L 67 104.5 L 70 105 L 70.5 103 L 72 103.5 L 72.5 101 L 73 126.5 L 60.5 131 L 44.5 131 Q 23.4 126.6 12 112.5 Q 1.7 101.3 0 81.5 L 1 80.5 L 1.5 69 Z " /><path fill="rgb(167,44,189)" stroke="rgb(167,44,189)" stroke-width="1" opacity="0.9882352941176471" d="M 80.5 105 L 81 109 L 84.5 111 L 86 110.5 L 87.5 114 L 88 112 L 94 113 L 95 118 L 100 117 Q 98.9 119.7 101.5 119 Q 102.7 116.8 104 119.5 L 105 122.5 L 105 148 Q 91.2 146.5 85 136.5 L 81 127.5 L 80.5 105 Z " /><path fill="rgb(142,137,184)" stroke="rgb(142,137,184)" stroke-width="1" opacity="0.1843137254901961" d="M 4.5 0 L 17 6 L 24 17.5 L 27 28.5 L 26 31.5 L 27 36.5 L 26 37.5 L 26 81.5 Q 27.8 91.2 33.5 97 L 39.5 101 L 41 100.5 L 40.5 102 L 43.5 103 L 45 102.5 Q 44.2 105.1 47.5 104 L 48.5 105 L 56 105 L 56.5 103 L 61.5 104 L 68 101 Q 66.9 98.3 69.5 99 L 74 96 L 74 127.5 L 72.5 129 L 66.5 130 L 66.5 129 L 73 126.5 L 72.5 97 Q 66 107.5 47.5 106 Q 35.9 103.1 30 94.5 L 25 81.5 L 25 24.5 Q 22.6 12.4 14.5 6 L 4.5 1 L 4.5 0 Z " /><path fill="rgb(142,137,184)" stroke="rgb(142,137,184)" stroke-width="1" opacity="0.1843137254901961" d="M 47.5 25 L 57.5 25 L 73.5 29 Q 86.6 34.9 95 45.5 L 102 56.5 L 102 62 L 98.5 63 L 95.5 62 L 93.5 62 L 72.5 62 L 68 60 Q 69.1 57.3 66.5 58 Q 60.7 52.3 48.5 53 L 40.5 55 L 32 61.5 Q 32.7 64.1 30 63 L 30 51.5 L 29 49.5 L 30 48.5 L 30 40.5 Q 27.3 38.8 29 32.5 L 31.5 29 L 47.5 25 Z M 48 26 L 35 29 L 31 32 L 32 61 Q 37 54 47 52 L 59 52 L 76 61 L 101 61 L 100 56 L 91 43 Q 78 26 48 26 Z " /><path fill="rgb(142,137,184)" stroke="rgb(142,137,184)" stroke-width="1" opacity="0.1843137254901961" d="M 66.5 65 L 69 65.5 L 59.5 68 L 49 75.5 L 46.5 80 L 46 78.5 L 53.5 70 L 58.5 67 L 66.5 65 Z " /><path fill="rgb(142,137,184)" stroke="rgb(142,137,184)" stroke-width="1" opacity="0.1843137254901961" d="M 70.5 65 L 95.5 65 L 103 69.5 L 106 74.5 L 106 95.5 L 105 95.5 L 105 76.5 L 100.5 69 L 94.5 66 L 70.5 66 L 70.5 65 Z " /><path fill="rgb(142,137,184)" stroke="rgb(142,137,184)" stroke-width="1" opacity="0.1843137254901961" d="M 44.5 83 L 45 84.5 L 44 91 L 78.5 91 L 80 92.5 L 79.5 113 L 79 92 L 45.5 92 L 44.5 93 Q 41.5 91.5 43 85.5 L 44.5 83 Z " /><path fill="rgb(142,137,184)" stroke="rgb(142,137,184)" stroke-width="1" opacity="0.1843137254901961" d="M 0.5 85 Q 3.8 107.7 18.5 119 L 25 123.5 L 23.5 123 L 9 110.5 L 2 97.5 L 0 89.5 L 0.5 85 Z " /><path fill="rgb(142,137,184)" stroke="rgb(142,137,184)" stroke-width="1" opacity="0.1843137254901961" d="M 105.5 107 L 106 147.5 Q 105.3 149.8 101.5 149 L 97 146.5 L 98.5 146 Q 100.5 148.8 105 148 L 105.5 107 Z " /><path fill="rgb(142,137,184)" stroke="rgb(142,137,184)" stroke-width="1" opacity="0.1843137254901961" d="M 80.5 120 L 81 124.5 L 80 124.5 L 80.5 120 Z " /><path fill="rgb(142,137,184)" stroke="rgb(142,137,184)" stroke-width="1" opacity="0.1843137254901961" d="M 26.5 124 L 39 129.5 L 36.5 130 L 27.5 126 L 26.5 124 Z " /><path fill="rgb(142,137,184)" stroke="rgb(142,137,184)" stroke-width="1" opacity="0.1843137254901961" d="M 81.5 128 L 83 132.5 L 81 131.5 L 81.5 128 Z " /><path fill="rgb(142,137,184)" stroke="rgb(142,137,184)" stroke-width="1" opacity="0.1843137254901961" d="M 40.5 130 Q 48.4 132.6 60.5 131 L 64.5 130 L 64.5 131 L 62.5 132 L 44.5 132 L 40.5 131 L 40.5 130 Z " /><path fill="rgb(142,137,184)" stroke="rgb(142,137,184)" stroke-width="1" opacity="0.1843137254901961" d="M 83.5 134 L 92.5 144 L 96 145.5 L 94.5 146 L 84 137.5 L 83.5 134 Z " /><path fill="rgb(20,20,20)" stroke="rgb(20,20,20)" stroke-width="1" opacity="0.996078431372549" d="M 320.5 32 L 324.5 32 L 332 37.5 L 331.5 39 Q 334.8 37.9 334 40.5 Q 339.3 44 341 50 L 344 51.5 L 347.5 56 L 349 55.5 L 349 51.5 L 349 33 L 355.5 33 L 357 34.5 L 357 38.5 L 357 59.5 L 356 61.5 L 356 63.5 L 354.5 66 L 351 67 L 350.5 65 L 349.5 67 L 343 62.5 L 341.5 60 Q 339.3 60.8 340 58.5 L 331 48.5 L 331 46 L 327 43.5 Q 327.7 40.5 324 42 L 324 53.5 L 323 54.5 L 324 55.5 L 324 66 L 316.5 66 L 316 65.5 L 316 36.5 L 317 34 L 320.5 32 Z " /><path fill="rgb(20,20,20)" stroke="rgb(20,20,20)" stroke-width="1" opacity="0.996078431372549" d="M 141 33 L 168.5 33 L 169.5 34 L 171.5 34 Q 173.8 33.3 173 35.5 Q 177.5 37 176 44.5 L 173 49.5 L 176 51.5 L 177 58.5 L 172.5 65 L 170.5 66 L 141.5 66 L 140 64.5 L 140 40.5 L 140 38.5 L 141 36.5 L 141 34.5 L 141 33 Z M 149 40 L 148 43 Q 147 47 149 47 L 167 47 L 168 45 L 166 40 L 163 41 L 161 41 L 159 40 L 157 40 L 154 41 L 152 41 L 149 40 Z M 152 51 L 147 54 L 148 57 L 150 60 L 150 59 L 152 59 Q 153 56 160 58 L 164 58 L 167 59 L 169 56 L 168 53 L 166 52 L 153 52 L 152 51 Z " /><path fill="rgb(20,20,20)" stroke="rgb(20,20,20)" stroke-width="1" opacity="0.996078431372549" d="M 185.5 33 L 188.5 34 L 189.5 33 L 215.5 33 L 218 33.5 L 219 38.5 L 218 41 L 193.5 41 L 192 42.5 Q 190.5 46.9 193.5 46 L 195.5 46 L 197.5 47 L 198.5 46 L 218 46 L 218 51.5 L 217.5 52 L 193.5 52 Q 191.3 52.8 192 56.5 L 193.5 59 L 195.5 58 L 197.5 58 L 217.5 58 L 219 59.5 L 219 61.5 Q 219.8 65.3 217.5 66 L 189.5 66 L 188.5 65 L 186.5 65 L 184 63.5 L 184 35.5 L 185.5 35 L 185.5 33 Z " /><path fill="rgb(20,20,20)" stroke="rgb(20,20,20)" stroke-width="1" opacity="0.996078431372549" d="M 225.5 33 Q 227.8 32.3 227 34.5 L 228 34.5 L 228.5 33 L 230.5 33 L 234.5 33 L 240 38.5 L 244.5 45 L 247 44 Q 249.1 37.1 255.5 33 L 259.5 33 Q 264.9 31.1 264 34.5 L 260 37 L 258.5 40 L 257 40.5 L 257.5 42 Q 255.3 41.3 256 43.5 L 249 51.5 L 249 66 L 240 66 L 240 61.5 L 241 60.5 L 241 51.5 L 238 46 L 233 42.5 L 231 39.5 L 225.5 33 Z " /><path fill="rgb(20,20,20)" stroke="rgb(20,20,20)" stroke-width="1" opacity="0.996078431372549" d="M 278.5 33 Q 293.2 31.2 301 35 Q 299.9 37.7 302.5 37 Q 308.5 41.5 308 52.5 L 302.5 62 L 301 61.5 L 299.5 64 L 295.5 66 L 279.5 66 L 275.5 65 L 271 61.5 L 269 58.5 Q 265.4 56.6 266 50.5 L 266 48.5 Q 265.3 44.3 268 43.5 Q 265.5 42 269 40.5 L 273.5 35 L 274.5 37 L 275 34 L 278.5 33 Z M 280 41 L 275 44 L 274 48 L 275 54 L 282 58 Q 292 60 298 56 L 301 49 L 299 48 Q 300 45 297 44 Q 298 41 296 42 L 294 42 L 293 41 L 280 41 Z " /><path fill="rgb(20,20,20)" stroke="rgb(20,20,20)" stroke-width="1" opacity="0.996078431372549" d="M 366.5 33 L 390.5 33 L 396 35 Q 394.9 37.7 397.5 37 L 399 40 Q 401.7 38.9 401 41.5 L 402 44.5 L 403 51.5 L 402 54.5 L 395.5 64 L 386.5 66 L 384.5 66 L 368.5 66 L 367.5 65 L 366 65.5 L 366 40.5 L 365 38.5 L 365 34.5 L 366.5 33 Z M 374 41 L 374 43 L 373 46 L 374 47 L 374 57 L 376 58 L 389 58 L 394 55 L 395 50 L 393 43 L 390 41 L 374 41 Z " /><path fill="rgb(20,20,20)" stroke="rgb(20,20,20)" stroke-width="1" opacity="0.996078431372549" d="M 155.5 80 L 158.5 81 L 159.5 80 L 169.5 80 L 171.5 80 L 175 80 L 175 89 L 171.5 88 L 170.5 89 L 153.5 89 L 148 92.5 L 148 94.5 L 147 99.5 L 148.5 103 L 151.5 105 L 152.5 106 L 164.5 106 L 167 107 L 167 97.5 L 168.5 96 L 175 96 L 175 112.5 L 174.5 115 L 172.5 115 L 168.5 114 L 167.5 115 L 158.5 115 L 156.5 115 Q 151.1 116.9 152 113.5 L 150.5 114 L 142 108.5 Q 137.5 104 139 93.5 Q 140.8 86.3 146.5 83 L 155.5 80 Z " /><path fill="rgb(20,20,20)" stroke="rgb(20,20,20)" stroke-width="1" opacity="0.996078431372549" d="M 200.5 80 Q 211.3 78.2 214 84.5 L 215 86.5 Q 212.5 88 216 89.5 L 220 97.5 L 220 99.5 L 227 112.5 L 227 115 L 222.5 114 L 220.5 115 L 217 113.5 Q 217.5 109.5 214.5 109 L 212.5 110 L 210.5 110 L 208.5 109 Q 207 111.5 201.5 110 L 197.5 110 L 194.5 109 L 192 115 L 183.5 115 L 183 112.5 L 188 101 L 190 100.5 L 190 98.5 L 193 92.5 L 192.5 91 L 195 89.5 L 194 88.5 Q 197.1 86.8 195.5 85 L 197 84.5 Q 194.8 83.3 197.5 82 L 200.5 80 Z M 205 88 L 202 91 L 198 103 L 202 102 L 207 103 L 210 102 Q 211 104 212 102 L 208 93 L 208 91 L 205 88 Z " /><path fill="rgb(20,20,20)" stroke="rgb(20,20,20)" stroke-width="1" opacity="0.996078431372549" d="M 240.5 80 Q 249.3 78.3 251 83.5 L 251 86 Q 254 84.8 253 88.5 L 258 98.5 L 257.5 100 Q 260.1 99.2 259 102.5 L 261.5 104 L 271 86.5 L 270.5 85 L 272 85.5 Q 271.5 81.5 274.5 81 L 281.5 80 L 286 83.5 L 287 86.5 L 286.5 88 L 288 88.5 L 288 115 L 280.5 115 L 279 113.5 L 280 112.5 L 280 95.5 L 280 93.5 L 278.5 90 L 275 92.5 L 275 94.5 L 267 113 L 265 113 Q 266.1 115.7 263.5 115 L 260.5 116 L 256 113.5 L 253 107.5 L 253.5 106 Q 250.9 106.8 252 103.5 L 244.5 90 Q 242.3 89.3 243 91.5 L 243 93.5 L 243 101.5 L 242 102.5 L 243 103.5 L 243 115 L 236.5 114 L 235 114.5 L 235 85.5 L 238.5 81 L 240.5 80 Z " /><path fill="rgb(20,20,20)" stroke="rgb(20,20,20)" stroke-width="1" opacity="0.996078431372549" d="M 297 80 L 305 81 L 305 113.5 L 303.5 115 L 301.5 115 L 299.5 114 L 297 115 L 297 80 Z " /><path fill="rgb(20,20,20)" stroke="rgb(20,20,20)" stroke-width="1" opacity="0.996078431372549" d="M 318.5 80 L 325.5 80 L 330 83 L 335.5 92 L 338 93.5 L 346.5 104 Q 349.8 105.1 349 102.5 L 348 99.5 L 348 97.5 L 348 84.5 L 349 83.5 L 348 81.5 L 350.5 80 L 352.5 81 L 354.5 81 L 357 82.5 L 356 84.5 L 357 86.5 L 357 88.5 L 357 107.5 L 356 108.5 L 357 110.5 L 355 114 L 348.5 116 L 343 111.5 Q 343.8 109.3 341.5 110 L 339 106 Q 336.3 107.1 337 104.5 Q 332.3 103.1 333 98 L 327 93.5 L 324.5 90 L 322 91.5 L 323 94.5 L 322 98.5 L 323 101.5 L 322 105.5 L 322 107.5 L 323 109.5 L 323 113.5 L 321.5 115 L 318.5 114 L 316.5 115 L 314 114.5 L 315 112.5 L 314 111.5 L 314 87.5 L 314 85.5 L 316.5 81 L 318.5 80 Z " /><path fill="rgb(20,20,20)" stroke="rgb(20,20,20)" stroke-width="1" opacity="0.996078431372549" d="M 381.5 80 L 384.5 81 L 399.5 81 L 400.5 80 L 402 85.5 L 402 87.5 Q 402.6 90.3 396.5 89 L 392.5 89 L 379.5 89 L 374 93.5 L 373 96.5 L 373.5 98 L 372 98.5 L 377.5 106 L 391.5 106 L 392.5 107 L 394 104.5 L 393 103.5 L 393 96 L 401 97 L 402 102.5 Q 399.5 104 401 109.5 L 402 112.5 L 401 115 L 382.5 115 L 380.5 114 L 378.5 115 L 370 110.5 Q 365.3 106.7 365 98.5 L 365 96.5 L 366 94.5 L 366 92.5 Q 366.9 85.3 372.5 83 L 381.5 80 Z " /><path fill="rgb(8,8,9)" stroke="rgb(8,8,9)" stroke-width="1" opacity="0.9333333333333333" d="M 325.5 32 L 332 36.5 L 328.5 34 Q 324.8 33.8 325.5 32 Z " /><path fill="rgb(8,8,9)" stroke="rgb(8,8,9)" stroke-width="1" opacity="0.9333333333333333" d="M 169.5 33 L 170.5 35 L 169.5 33 Z " /><path fill="rgb(8,8,9)" stroke="rgb(8,8,9)" stroke-width="1" opacity="0.9333333333333333" d="M 254.5 33 L 259 33.5 L 255.5 35 L 254.5 33 Z " /><path fill="rgb(8,8,9)" stroke="rgb(8,8,9)" stroke-width="1" opacity="0.9333333333333333" d="M 318.5 33 L 319.5 35 L 318.5 33 Z " /><path fill="rgb(8,8,9)" stroke="rgb(8,8,9)" stroke-width="1" opacity="0.9333333333333333" d="M 260.5 34 L 259.5 36 L 260.5 34 Z " /><path fill="rgb(8,8,9)" stroke="rgb(8,8,9)" stroke-width="1" opacity="0.9333333333333333" d="M 173.5 35 L 175.5 38 L 173.5 35 Z " /><path fill="rgb(8,8,9)" stroke="rgb(8,8,9)" stroke-width="1" opacity="0.9333333333333333" d="M 365.5 35 Q 368.5 36.5 365.5 38 L 365.5 35 Z " /><path fill="rgb(8,8,9)" stroke="rgb(8,8,9)" stroke-width="1" opacity="0.9333333333333333" d="M 391.5 35 L 394 35.5 Q 391.9 38.8 391.5 35 Z " /><path fill="rgb(8,8,9)" stroke="rgb(8,8,9)" stroke-width="1" opacity="0.9333333333333333" d="M 227.5 36 L 230.5 40 L 227.5 36 Z " /><path fill="rgb(8,8,9)" stroke="rgb(8,8,9)" stroke-width="1" opacity="0.9333333333333333" d="M 255.5 36 L 256.5 38 L 255.5 36 Z " /><path fill="rgb(8,8,9)" stroke="rgb(8,8,9)" stroke-width="1" opacity="0.9333333333333333" d="M 301.5 36 L 300.5 38 L 301.5 36 Z " /><path fill="rgb(8,8,9)" stroke="rgb(8,8,9)" stroke-width="1" opacity="0.9333333333333333" d="M 396.5 36 L 395.5 38 L 396.5 36 Z " /><path fill="rgb(8,8,9)" stroke="rgb(8,8,9)" stroke-width="1" opacity="0.9333333333333333" d="M 240.5 39 L 245.5 43 L 249 40.5 L 247 44 L 244.5 45 L 240.5 39 Z " /><path fill="rgb(8,8,9)" stroke="rgb(8,8,9)" stroke-width="1" opacity="0.9333333333333333" d="M 252.5 39 L 253.5 43 Q 249 41 252.5 39 Z " /><path fill="rgb(8,8,9)" stroke="rgb(8,8,9)" stroke-width="1" opacity="0.9333333333333333" d="M 304.5 39 L 305.5 41 L 304.5 39 Z " /><path fill="rgb(8,8,9)" stroke="rgb(8,8,9)" stroke-width="1" opacity="0.9333333333333333" d="M 176.5 40 L 177 44.5 L 174.5 48 L 175 46.5 L 176.5 40 Z " /><path fill="rgb(8,8,9)" stroke="rgb(8,8,9)" stroke-width="1" opacity="0.9333333333333333" d="M 334.5 40 Q 337.5 41.5 334.5 43 Q 331.5 41.5 334.5 40 Z " /><path fill="rgb(8,8,9)" stroke="rgb(8,8,9)" stroke-width="1" opacity="0.9333333333333333" d="M 365.5 40 L 366 64.5 L 365 64.5 L 365.5 40 Z " /><path fill="rgb(8,8,9)" stroke="rgb(8,8,9)" stroke-width="1" opacity="0.9333333333333333" d="M 297.5 41 L 296.5 43 L 297.5 41 Z " /><path fill="rgb(8,8,9)" stroke="rgb(8,8,9)" stroke-width="1" opacity="0.9333333333333333" d="M 300.5 41 L 300.5 44 Q 297.5 42.5 300.5 41 Z " /><path fill="rgb(8,8,9)" stroke="rgb(8,8,9)" stroke-width="1" opacity="0.9333333333333333" d="M 388.5 41 L 391 42.5 L 389.5 42 L 388.5 41 Z " /><path fill="rgb(8,8,9)" stroke="rgb(8,8,9)" stroke-width="1" opacity="0.9333333333333333" d="M 148.5 42 L 149 46.5 L 148 46.5 L 148.5 42 Z " /><path fill="rgb(8,8,9)" stroke="rgb(8,8,9)" stroke-width="1" opacity="0.9333333333333333" d="M 268.5 42 L 267.5 44 L 268.5 42 Z " /><path fill="rgb(8,8,9)" stroke="rgb(8,8,9)" stroke-width="1" opacity="0.9333333333333333" d="M 240.5 44 L 241.5 46 L 240.5 44 Z " /><path fill="rgb(8,8,9)" stroke="rgb(8,8,9)" stroke-width="1" opacity="0.9333333333333333" d="M 327.5 44 L 331 46 L 330.5 48 L 327.5 44 Z " /><path fill="rgb(8,8,9)" stroke="rgb(8,8,9)" stroke-width="1" opacity="0.9333333333333333" d="M 250.5 45 L 249.5 47 L 250.5 45 Z " /><path fill="rgb(8,8,9)" stroke="rgb(8,8,9)" stroke-width="1" opacity="0.9333333333333333" d="M 301.5 45 L 300.5 47 L 301.5 45 Z " /><path fill="rgb(8,8,9)" stroke="rgb(8,8,9)" stroke-width="1" opacity="0.9333333333333333" d="M 402.5 45 L 401.5 47 L 402.5 45 Z " /><path fill="rgb(8,8,9)" stroke="rgb(8,8,9)" stroke-width="1" opacity="0.9333333333333333" d="M 166.5 46 L 167.5 48 L 166.5 46 Z " /><path fill="rgb(8,8,9)" stroke="rgb(8,8,9)" stroke-width="1" opacity="0.9333333333333333" d="M 218.5 46 L 219 51.5 L 218 51.5 L 218.5 46 Z " /><path fill="rgb(8,8,9)" stroke="rgb(8,8,9)" stroke-width="1" opacity="0.9333333333333333" d="M 339.5 46 L 340.5 48 L 339.5 46 Z " /><path fill="rgb(8,8,9)" stroke="rgb(8,8,9)" stroke-width="1" opacity="0.9333333333333333" d="M 395.5 46 L 394.5 48 L 395.5 46 Z " /><path fill="rgb(8,8,9)" stroke="rgb(8,8,9)" stroke-width="1" opacity="0.9333333333333333" d="M 238.5 48 L 239.5 50 L 238.5 48 Z " /><path fill="rgb(8,8,9)" stroke="rgb(8,8,9)" stroke-width="1" opacity="0.9333333333333333" d="M 299.5 50 L 300 52.5 L 297.5 56 L 298 54.5 L 299.5 50 Z " /><path fill="rgb(8,8,9)" stroke="rgb(8,8,9)" stroke-width="1" opacity="0.9333333333333333" d="M 172.5 51 L 171.5 53 L 172.5 51 Z " /><path fill="rgb(8,8,9)" stroke="rgb(8,8,9)" stroke-width="1" opacity="0.9333333333333333" d="M 240.5 51 L 241 60.5 L 240 60.5 L 240.5 51 Z " /><path fill="rgb(8,8,9)" stroke="rgb(8,8,9)" stroke-width="1" opacity="0.9333333333333333" d="M 333.5 51 L 335.5 54 L 333.5 51 Z " /><path fill="rgb(8,8,9)" stroke="rgb(8,8,9)" stroke-width="1" opacity="0.9333333333333333" d="M 148.5 52 L 149 56.5 L 148.5 58 Q 150.8 57.3 150 59.5 L 147.5 58 L 146 57.5 L 148 57 L 147 53.5 L 148.5 52 Z " /><path fill="rgb(8,8,9)" stroke="rgb(8,8,9)" stroke-width="1" opacity="0.9333333333333333" d="M 306.5 52 L 307.5 54 L 306.5 52 Z " /><path fill="rgb(8,8,9)" stroke="rgb(8,8,9)" stroke-width="1" opacity="0.9333333333333333" d="M 344.5 52 Q 347.5 53.5 344.5 55 L 344.5 52 Z " /><path fill="rgb(8,8,9)" stroke="rgb(8,8,9)" stroke-width="1" opacity="0.9333333333333333" d="M 301.5 53 L 304 53.5 Q 301.9 56.8 301.5 53 Z " /><path fill="rgb(8,8,9)" stroke="rgb(8,8,9)" stroke-width="1" opacity="0.9333333333333333" d="M 398.5 57 L 397.5 59 L 398.5 57 Z " /><path fill="rgb(8,8,9)" stroke="rgb(8,8,9)" stroke-width="1" opacity="0.9333333333333333" d="M 164.5 58 L 167 58.5 L 164.5 59 L 164.5 58 Z " /><path fill="rgb(8,8,9)" stroke="rgb(8,8,9)" stroke-width="1" opacity="0.9333333333333333" d="M 305.5 58 L 304.5 60 L 305.5 58 Z " /><path fill="rgb(8,8,9)" stroke="rgb(8,8,9)" stroke-width="1" opacity="0.9333333333333333" d="M 400.5 58 L 398.5 61 L 400.5 58 Z " /><path fill="rgb(8,8,9)" stroke="rgb(8,8,9)" stroke-width="1" opacity="0.9333333333333333" d="M 342.5 59 L 342.5 62 Q 339.5 60.5 342.5 59 Z " /><path fill="rgb(8,8,9)" stroke="rgb(8,8,9)" stroke-width="1" opacity="0.9333333333333333" d="M 354.5 59 L 353.5 61 L 354.5 59 Z " /><path fill="rgb(8,8,9)" stroke="rgb(8,8,9)" stroke-width="1" opacity="0.9333333333333333" d="M 301.5 61 L 302 62.5 L 300 63.5 L 301.5 61 Z " /><path fill="rgb(8,8,9)" stroke="rgb(8,8,9)" stroke-width="1" opacity="0.9333333333333333" d="M 184.5 64 L 187 65.5 L 185.5 66 L 184.5 64 Z " /><path fill="rgb(8,8,9)" stroke="rgb(8,8,9)" stroke-width="1" opacity="0.9333333333333333" d="M 346.5 65 L 349 66.5 L 347.5 66 L 346.5 65 Z " /><path fill="rgb(8,8,9)" stroke="rgb(8,8,9)" stroke-width="1" opacity="0.9333333333333333" d="M 275.5 80 L 276.5 82 L 275.5 80 Z " /><path fill="rgb(8,8,9)" stroke="rgb(8,8,9)" stroke-width="1" opacity="0.9333333333333333" d="M 300.5 80 L 305 80.5 L 300.5 81 L 300.5 80 Z " /><path fill="rgb(8,8,9)" stroke="rgb(8,8,9)" stroke-width="1" opacity="0.9333333333333333" d="M 354.5 80 Q 357.8 78.9 357 81.5 L 355.5 81 L 354.5 80 Z " /><path fill="rgb(8,8,9)" stroke="rgb(8,8,9)" stroke-width="1" opacity="0.9333333333333333" d="M 384.5 80 L 400 80.5 L 384.5 81 L 384.5 80 Z " /><path fill="rgb(8,8,9)" stroke="rgb(8,8,9)" stroke-width="1" opacity="0.9333333333333333" d="M 401.5 80 L 402 84.5 L 401 84.5 L 401.5 80 Z " /><path fill="rgb(8,8,9)" stroke="rgb(8,8,9)" stroke-width="1" opacity="0.9333333333333333" d="M 198.5 81 L 199.5 83 L 198.5 81 Z " /><path fill="rgb(8,8,9)" stroke="rgb(8,8,9)" stroke-width="1" opacity="0.9333333333333333" d="M 273.5 81 L 273.5 84 Q 270.5 82.5 273.5 81 Z " /><path fill="rgb(8,8,9)" stroke="rgb(8,8,9)" stroke-width="1" opacity="0.9333333333333333" d="M 327.5 81 L 328.5 83 L 327.5 81 Z " /><path fill="rgb(8,8,9)" stroke="rgb(8,8,9)" stroke-width="1" opacity="0.9333333333333333" d="M 196.5 84 L 197.5 86 L 196.5 84 Z " /><path fill="rgb(8,8,9)" stroke="rgb(8,8,9)" stroke-width="1" opacity="0.9333333333333333" d="M 211.5 84 Q 214.5 85.5 211.5 87 L 211.5 84 Z " /><path fill="rgb(8,8,9)" stroke="rgb(8,8,9)" stroke-width="1" opacity="0.9333333333333333" d="M 271.5 84 L 272 85.5 L 269 87.5 L 271.5 84 Z " /><path fill="rgb(8,8,9)" stroke="rgb(8,8,9)" stroke-width="1" opacity="0.9333333333333333" d="M 275.5 84 L 275.5 87 Q 272.5 85.5 275.5 84 Z " /><path fill="rgb(8,8,9)" stroke="rgb(8,8,9)" stroke-width="1" opacity="0.9333333333333333" d="M 195.5 86 L 194.5 88 L 195.5 86 Z " /><path fill="rgb(8,8,9)" stroke="rgb(8,8,9)" stroke-width="1" opacity="0.9333333333333333" d="M 249.5 86 L 248.5 88 L 249.5 86 Z " /><path fill="rgb(8,8,9)" stroke="rgb(8,8,9)" stroke-width="1" opacity="0.9333333333333333" d="M 287.5 86 L 288 88 L 286 87.5 L 287.5 86 Z " /><path fill="rgb(8,8,9)" stroke="rgb(8,8,9)" stroke-width="1" opacity="0.9333333333333333" d="M 314.5 86 L 315.5 88 L 314.5 86 Z " /><path fill="rgb(8,8,9)" stroke="rgb(8,8,9)" stroke-width="1" opacity="0.9333333333333333" d="M 355.5 86 L 356.5 88 L 355.5 86 Z " /><path fill="rgb(8,8,9)" stroke="rgb(8,8,9)" stroke-width="1" opacity="0.9333333333333333" d="M 214.5 87 L 215.5 89 L 214.5 87 Z " /><path fill="rgb(8,8,9)" stroke="rgb(8,8,9)" stroke-width="1" opacity="0.9333333333333333" d="M 332.5 87 L 336 91.5 Q 334 95 332 90.5 L 334 90.5 L 332.5 87 Z " /><path fill="rgb(8,8,9)" stroke="rgb(8,8,9)" stroke-width="1" opacity="0.9333333333333333" d="M 204.5 88 L 208 90.5 L 205.5 89 L 204.5 88 Z " /><path fill="rgb(8,8,9)" stroke="rgb(8,8,9)" stroke-width="1" opacity="0.9333333333333333" d="M 243.5 88 L 243.5 91 Q 240.5 89.5 243.5 88 Z " /><path fill="rgb(8,8,9)" stroke="rgb(8,8,9)" stroke-width="1" opacity="0.9333333333333333" d="M 321.5 88 L 320.5 90 L 321.5 88 Z " /><path fill="rgb(8,8,9)" stroke="rgb(8,8,9)" stroke-width="1" opacity="0.9333333333333333" d="M 193 89 L 195 89.5 L 193 90.5 L 193 89 Z " /><path fill="rgb(8,8,9)" stroke="rgb(8,8,9)" stroke-width="1" opacity="0.9333333333333333" d="M 278.5 90 L 280 93.5 L 279 93.5 L 278.5 90 Z " /><path fill="rgb(8,8,9)" stroke="rgb(8,8,9)" stroke-width="1" opacity="0.9333333333333333" d="M 323.5 90 L 325.5 91 L 327 90.5 L 326.5 93 L 323 91 L 322.5 94 L 322 91.5 L 323.5 90 Z " /><path fill="rgb(8,8,9)" stroke="rgb(8,8,9)" stroke-width="1" opacity="0.9333333333333333" d="M 192.5 92 Q 195.5 93.5 192.5 95 Q 189.5 93.5 192.5 92 Z " /><path fill="rgb(8,8,9)" stroke="rgb(8,8,9)" stroke-width="1" opacity="0.9333333333333333" d="M 196.5 93 L 195.5 95 L 196.5 93 Z " /><path fill="rgb(8,8,9)" stroke="rgb(8,8,9)" stroke-width="1" opacity="0.9333333333333333" d="M 338.5 94 L 339.5 96 L 338.5 94 Z " /><path fill="rgb(8,8,9)" stroke="rgb(8,8,9)" stroke-width="1" opacity="0.9333333333333333" d="M 273.5 95 L 274.5 97 L 273.5 95 Z " /><path fill="rgb(8,8,9)" stroke="rgb(8,8,9)" stroke-width="1" opacity="0.9333333333333333" d="M 279.5 95 L 280 112.5 L 279 112.5 L 279.5 95 Z " /><path fill="rgb(8,8,9)" stroke="rgb(8,8,9)" stroke-width="1" opacity="0.9333333333333333" d="M 322.5 95 L 323 98.5 L 322 98.5 L 322.5 95 Z " /><path fill="rgb(8,8,9)" stroke="rgb(8,8,9)" stroke-width="1" opacity="0.9333333333333333" d="M 249.5 96 L 248.5 98 L 249.5 96 Z " /><path fill="rgb(8,8,9)" stroke="rgb(8,8,9)" stroke-width="1" opacity="0.9333333333333333" d="M 396.5 96 Q 404.8 93.3 402 101.5 L 401 101.5 Q 403.3 94.8 396.5 97 L 396.5 96 Z " /><path fill="rgb(8,8,9)" stroke="rgb(8,8,9)" stroke-width="1" opacity="0.9333333333333333" d="M 330.5 97 L 333 98 L 332.5 100 L 330.5 97 Z " /><path fill="rgb(8,8,9)" stroke="rgb(8,8,9)" stroke-width="1" opacity="0.9333333333333333" d="M 219.5 98 L 222 101.5 L 220 100.5 L 219.5 98 Z " /><path fill="rgb(8,8,9)" stroke="rgb(8,8,9)" stroke-width="1" opacity="0.9333333333333333" d="M 372.5 98 Q 374.8 97.3 374 99.5 L 372.5 98 Z " /><path fill="rgb(8,8,9)" stroke="rgb(8,8,9)" stroke-width="1" opacity="0.9333333333333333" d="M 142.5 99 L 143.5 101 L 142.5 99 Z " /><path fill="rgb(8,8,9)" stroke="rgb(8,8,9)" stroke-width="1" opacity="0.9333333333333333" d="M 343.5 100 L 344.5 102 L 343.5 100 Z " /><path fill="rgb(8,8,9)" stroke="rgb(8,8,9)" stroke-width="1" opacity="0.9333333333333333" d="M 147.5 101 L 148.5 103 L 147.5 101 Z " /><path fill="rgb(8,8,9)" stroke="rgb(8,8,9)" stroke-width="1" opacity="0.9333333333333333" d="M 140.5 102 L 139.5 104 L 140.5 102 Z " /><path fill="rgb(8,8,9)" stroke="rgb(8,8,9)" stroke-width="1" opacity="0.9333333333333333" d="M 198.5 102 L 201 102.5 L 198.5 103 L 198.5 102 Z " /><path fill="rgb(8,8,9)" stroke="rgb(8,8,9)" stroke-width="1" opacity="0.9333333333333333" d="M 259.5 102 L 260.5 104 L 259.5 102 Z " /><path fill="rgb(8,8,9)" stroke="rgb(8,8,9)" stroke-width="1" opacity="0.9333333333333333" d="M 340.5 102 L 339.5 104 L 340.5 102 Z " /><path fill="rgb(8,8,9)" stroke="rgb(8,8,9)" stroke-width="1" opacity="0.9333333333333333" d="M 322.5 103 L 323 105.5 L 322 105.5 L 322.5 103 Z " /><path fill="rgb(8,8,9)" stroke="rgb(8,8,9)" stroke-width="1" opacity="0.9333333333333333" d="M 401.5 103 L 402 109.5 L 401 109.5 L 401.5 103 Z " /><path fill="rgb(8,8,9)" stroke="rgb(8,8,9)" stroke-width="1" opacity="0.9333333333333333" d="M 269.5 104 L 268.5 106 L 269.5 104 Z " /><path fill="rgb(8,8,9)" stroke="rgb(8,8,9)" stroke-width="1" opacity="0.9333333333333333" d="M 376.5 104 L 379 105.5 L 377.5 106 L 376.5 104 Z " /><path fill="rgb(8,8,9)" stroke="rgb(8,8,9)" stroke-width="1" opacity="0.9333333333333333" d="M 368.5 108 L 369.5 110 L 368.5 108 Z " /><path fill="rgb(8,8,9)" stroke="rgb(8,8,9)" stroke-width="1" opacity="0.9333333333333333" d="M 374.5 108 L 373.5 110 L 374.5 108 Z " /><path fill="rgb(8,8,9)" stroke="rgb(8,8,9)" stroke-width="1" opacity="0.9333333333333333" d="M 146.5 110 L 145.5 112 L 146.5 110 Z " /><path fill="rgb(8,8,9)" stroke="rgb(8,8,9)" stroke-width="1" opacity="0.9333333333333333" d="M 355.5 110 Q 358.5 111.5 355.5 113 L 355.5 110 Z " /><path fill="rgb(8,8,9)" stroke="rgb(8,8,9)" stroke-width="1" opacity="0.9333333333333333" d="M 343.5 112 L 345.5 115 L 343.5 112 Z " /><path fill="rgb(8,8,9)" stroke="rgb(8,8,9)" stroke-width="1" opacity="0.9333333333333333" d="M 174.5 113 L 173.5 115 L 174.5 113 Z " /><path fill="rgb(8,8,9)" stroke="rgb(8,8,9)" stroke-width="1" opacity="0.9333333333333333" d="M 316.5 113 L 315.5 115 L 316.5 113 Z " /><path fill="rgb(8,8,9)" stroke="rgb(8,8,9)" stroke-width="1" opacity="0.9333333333333333" d="M 258.5 114 L 259.5 116 L 258.5 114 Z " /><path fill="rgb(8,8,9)" stroke="rgb(8,8,9)" stroke-width="1" opacity="0.9333333333333333" d="M 353.5 114 L 352.5 116 L 350 115.5 L 353.5 114 Z " /><path fill="rgb(15,15,16)" stroke="rgb(15,15,16)" stroke-width="1" opacity="0.7294117647058823" d="M 214.5 32 L 218 32.5 L 214.5 33 L 214.5 32 Z " /><path fill="rgb(15,15,16)" stroke="rgb(15,15,16)" stroke-width="1" opacity="0.7294117647058823" d="M 282.5 32 L 285 32.5 L 282.5 33 L 282.5 32 Z " /><path fill="rgb(15,15,16)" stroke="rgb(15,15,16)" stroke-width="1" opacity="0.7294117647058823" d="M 225.5 34 L 226.5 36 L 225.5 34 Z " /><path fill="rgb(15,15,16)" stroke="rgb(15,15,16)" stroke-width="1" opacity="0.7294117647058823" d="M 253.5 34 L 250.5 38 L 253.5 34 Z " /><path fill="rgb(15,15,16)" stroke="rgb(15,15,16)" stroke-width="1" opacity="0.7294117647058823" d="M 348.5 34 L 349 37.5 L 348 37.5 L 348.5 34 Z " /><path fill="rgb(15,15,16)" stroke="rgb(15,15,16)" stroke-width="1" opacity="0.7294117647058823" d="M 263.5 35 L 259.5 40 L 263.5 35 Z " /><path fill="rgb(15,15,16)" stroke="rgb(15,15,16)" stroke-width="1" opacity="0.7294117647058823" d="M 271.5 36 L 269.5 39 L 271.5 36 Z " /><path fill="rgb(15,15,16)" stroke="rgb(15,15,16)" stroke-width="1" opacity="0.7294117647058823" d="M 397.5 36 L 399.5 39 L 397.5 36 Z " /><path fill="rgb(15,15,16)" stroke="rgb(15,15,16)" stroke-width="1" opacity="0.7294117647058823" d="M 303.5 37 L 304.5 39 L 303.5 37 Z " /><path fill="rgb(15,15,16)" stroke="rgb(15,15,16)" stroke-width="1" opacity="0.7294117647058823" d="M 315.5 37 L 316 65.5 L 315 65.5 L 315.5 37 Z " /><path fill="rgb(15,15,16)" stroke="rgb(15,15,16)" stroke-width="1" opacity="0.7294117647058823" d="M 183.5 39 L 184 47.5 L 183 47.5 L 183.5 39 Z " /><path fill="rgb(15,15,16)" stroke="rgb(15,15,16)" stroke-width="1" opacity="0.7294117647058823" d="M 198.5 41 L 219 41.5 L 198.5 42 L 198.5 41 Z " /><path fill="rgb(15,15,16)" stroke="rgb(15,15,16)" stroke-width="1" opacity="0.7294117647058823" d="M 281.5 41 L 286 41.5 L 281.5 42 L 281.5 41 Z " /><path fill="rgb(15,15,16)" stroke="rgb(15,15,16)" stroke-width="1" opacity="0.7294117647058823" d="M 287.5 41 L 290 41.5 L 287.5 42 L 287.5 41 Z " /><path fill="rgb(15,15,16)" stroke="rgb(15,15,16)" stroke-width="1" opacity="0.7294117647058823" d="M 375.5 41 L 378 41.5 L 375.5 42 L 375.5 41 Z " /><path fill="rgb(15,15,16)" stroke="rgb(15,15,16)" stroke-width="1" opacity="0.7294117647058823" d="M 379.5 41 L 386 41.5 L 379.5 42 L 379.5 41 Z " /><path fill="rgb(15,15,16)" stroke="rgb(15,15,16)" stroke-width="1" opacity="0.7294117647058823" d="M 278.5 42 L 277.5 44 L 278.5 42 Z " /><path fill="rgb(15,15,16)" stroke="rgb(15,15,16)" stroke-width="1" opacity="0.7294117647058823" d="M 295.5 42 L 297.5 45 L 295.5 42 Z " /><path fill="rgb(15,15,16)" stroke="rgb(15,15,16)" stroke-width="1" opacity="0.7294117647058823" d="M 325.5 42 L 326.5 44 L 325 43.5 L 324.5 45 L 324 43.5 L 325.5 42 Z " /><path fill="rgb(15,15,16)" stroke="rgb(15,15,16)" stroke-width="1" opacity="0.7294117647058823" d="M 336.5 42 L 338.5 45 L 336.5 42 Z " /><path fill="rgb(15,15,16)" stroke="rgb(15,15,16)" stroke-width="1" opacity="0.7294117647058823" d="M 192.5 43 L 193 45.5 L 192 45.5 L 192.5 43 Z " /><path fill="rgb(15,15,16)" stroke="rgb(15,15,16)" stroke-width="1" opacity="0.7294117647058823" d="M 233.5 43 L 237.5 48 L 233.5 43 Z " /><path fill="rgb(15,15,16)" stroke="rgb(15,15,16)" stroke-width="1" opacity="0.7294117647058823" d="M 254.5 45 L 250.5 50 L 254.5 45 Z " /><path fill="rgb(15,15,16)" stroke="rgb(15,15,16)" stroke-width="1" opacity="0.7294117647058823" d="M 265.5 47 L 266 51.5 L 265 51.5 L 265.5 47 Z " /><path fill="rgb(15,15,16)" stroke="rgb(15,15,16)" stroke-width="1" opacity="0.7294117647058823" d="M 324.5 47 L 325 49.5 L 324 49.5 L 324.5 47 Z " /><path fill="rgb(15,15,16)" stroke="rgb(15,15,16)" stroke-width="1" opacity="0.7294117647058823" d="M 274.5 48 L 275 50.5 L 274 50.5 L 274.5 48 Z " /><path fill="rgb(15,15,16)" stroke="rgb(15,15,16)" stroke-width="1" opacity="0.7294117647058823" d="M 275.5 53 L 277.5 56 L 275.5 53 Z " /><path fill="rgb(15,15,16)" stroke="rgb(15,15,16)" stroke-width="1" opacity="0.7294117647058823" d="M 336.5 55 L 339.5 59 L 336.5 55 Z " /><path fill="rgb(15,15,16)" stroke="rgb(15,15,16)" stroke-width="1" opacity="0.7294117647058823" d="M 192.5 56 L 193.5 58 L 192.5 56 Z " /><path fill="rgb(15,15,16)" stroke="rgb(15,15,16)" stroke-width="1" opacity="0.7294117647058823" d="M 304.5 60 L 302.5 63 L 304.5 60 Z " /><path fill="rgb(15,15,16)" stroke="rgb(15,15,16)" stroke-width="1" opacity="0.7294117647058823" d="M 399.5 60 L 397.5 63 L 399.5 60 Z " /><path fill="rgb(15,15,16)" stroke="rgb(15,15,16)" stroke-width="1" opacity="0.7294117647058823" d="M 174.5 63 L 173.5 65 L 174.5 63 Z " /><path fill="rgb(15,15,16)" stroke="rgb(15,15,16)" stroke-width="1" opacity="0.7294117647058823" d="M 344.5 64 L 345.5 66 L 344.5 64 Z " /><path fill="rgb(15,15,16)" stroke="rgb(15,15,16)" stroke-width="1" opacity="0.7294117647058823" d="M 317.5 66 L 321 66.5 L 317.5 67 L 317.5 66 Z " /><path fill="rgb(15,15,16)" stroke="rgb(15,15,16)" stroke-width="1" opacity="0.7294117647058823" d="M 175.5 80 L 176 83.5 L 175 83.5 L 175.5 80 Z " /><path fill="rgb(15,15,16)" stroke="rgb(15,15,16)" stroke-width="1" opacity="0.7294117647058823" d="M 296.5 80 L 297 84.5 L 296 84.5 L 296.5 80 Z " /><path fill="rgb(15,15,16)" stroke="rgb(15,15,16)" stroke-width="1" opacity="0.7294117647058823" d="M 305.5 80 L 306 82.5 L 305 82.5 L 305.5 80 Z " /><path fill="rgb(15,15,16)" stroke="rgb(15,15,16)" stroke-width="1" opacity="0.7294117647058823" d="M 371.5 83 L 367.5 88 L 371.5 83 Z " /><path fill="rgb(15,15,16)" stroke="rgb(15,15,16)" stroke-width="1" opacity="0.7294117647058823" d="M 144.5 84 L 142.5 87 L 144.5 84 Z " /><path fill="rgb(15,15,16)" stroke="rgb(15,15,16)" stroke-width="1" opacity="0.7294117647058823" d="M 330.5 84 L 332.5 87 L 330.5 84 Z " /><path fill="rgb(15,15,16)" stroke="rgb(15,15,16)" stroke-width="1" opacity="0.7294117647058823" d="M 296.5 86 L 297 114.5 L 296 114.5 L 296.5 86 Z " /><path fill="rgb(15,15,16)" stroke="rgb(15,15,16)" stroke-width="1" opacity="0.7294117647058823" d="M 234.5 87 L 235 112.5 L 234 112.5 L 234.5 87 Z " /><path fill="rgb(15,15,16)" stroke="rgb(15,15,16)" stroke-width="1" opacity="0.7294117647058823" d="M 395.5 89 L 400 89.5 L 395.5 90 L 395.5 89 Z " /><path fill="rgb(15,15,16)" stroke="rgb(15,15,16)" stroke-width="1" opacity="0.7294117647058823" d="M 244.5 90 L 244 91.5 L 243.5 93 L 243 91.5 L 244.5 90 Z " /><path fill="rgb(15,15,16)" stroke="rgb(15,15,16)" stroke-width="1" opacity="0.7294117647058823" d="M 335.5 90 L 337.5 93 L 335.5 90 Z " /><path fill="rgb(15,15,16)" stroke="rgb(15,15,16)" stroke-width="1" opacity="0.7294117647058823" d="M 150.5 91 L 149.5 93 L 150.5 91 Z " /><path fill="rgb(15,15,16)" stroke="rgb(15,15,16)" stroke-width="1" opacity="0.7294117647058823" d="M 376.5 91 L 375.5 93 L 376.5 91 Z " /><path fill="rgb(15,15,16)" stroke="rgb(15,15,16)" stroke-width="1" opacity="0.7294117647058823" d="M 327.5 94 L 329.5 97 L 327.5 94 Z " /><path fill="rgb(15,15,16)" stroke="rgb(15,15,16)" stroke-width="1" opacity="0.7294117647058823" d="M 138.5 96 L 139 98.5 L 138 98.5 L 138.5 96 Z " /><path fill="rgb(15,15,16)" stroke="rgb(15,15,16)" stroke-width="1" opacity="0.7294117647058823" d="M 175.5 96 L 176 113.5 L 175 113.5 L 175.5 96 Z " /><path fill="rgb(15,15,16)" stroke="rgb(15,15,16)" stroke-width="1" opacity="0.7294117647058823" d="M 305.5 96 L 306 98.5 L 305 98.5 L 305.5 96 Z " /><path fill="rgb(15,15,16)" stroke="rgb(15,15,16)" stroke-width="1" opacity="0.7294117647058823" d="M 333.5 101 L 335.5 104 L 333.5 101 Z " /><path fill="rgb(15,15,16)" stroke="rgb(15,15,16)" stroke-width="1" opacity="0.7294117647058823" d="M 262.5 102 L 261.5 104 L 262.5 102 Z " /><path fill="rgb(15,15,16)" stroke="rgb(15,15,16)" stroke-width="1" opacity="0.7294117647058823" d="M 151.5 104 L 152.5 106 L 151.5 104 Z " /><path fill="rgb(15,15,16)" stroke="rgb(15,15,16)" stroke-width="1" opacity="0.7294117647058823" d="M 339.5 108 L 340.5 110 L 339.5 108 Z " /><path fill="rgb(15,15,16)" stroke="rgb(15,15,16)" stroke-width="1" opacity="0.7294117647058823" d="M 354.5 114 L 353.5 116 L 354.5 114 Z " /><path fill="rgb(144,99,208)" stroke="rgb(144,99,208)" stroke-width="1" opacity="0.9803921568627451" d="M 1 39 L 15 45 Q 13.9 47.7 16.5 47 L 20 48.5 L 21.5 51 Q 25 49.5 24.5 44 L 25 77.5 L 24 79.5 L 24.5 81 L 20.5 80 L 18 81 L 16.5 77 L 13.5 77 L 2 71 L 1.5 69 L 0.5 81 L 0 52.5 L 1 51.5 L 1 39 Z " /><path fill="rgb(144,99,208)" stroke="rgb(144,99,208)" stroke-width="1" opacity="0.9803921568627451" d="M 31.5 50 L 33 53.5 Q 30.7 54.8 33.5 56 Q 36.1 56.7 35 54 L 39.5 54 L 41.5 53 L 41.5 54 L 31.5 61 L 31.5 50 Z " /><path fill="rgb(144,99,208)" stroke="rgb(144,99,208)" stroke-width="1" opacity="0.9803921568627451" d="M 67.5 66 L 74 66.5 L 67.5 67 L 67.5 66 Z " /><path fill="rgb(144,99,208)" stroke="rgb(144,99,208)" stroke-width="1" opacity="0.9803921568627451" d="M 62.5 67 Q 66.3 66.3 67 68.5 L 64.5 69 L 63 69.5 L 67.5 71 L 69.5 71 L 77.5 77 L 82 77 Q 80.9 79.7 83.5 79 L 97.5 87 L 99.5 86 L 102.5 87 L 104 85.5 L 104.5 78 L 105 121.5 L 104 121.5 L 102.5 118 L 100 119 Q 101.1 116.3 98.5 117 L 95 118 L 94 113 L 88 112 L 87.5 114 L 85.5 110 Q 84 112.5 82.5 109 Q 79.5 109.9 81 105.5 L 80 104.5 L 80 92.5 L 78.5 91 L 46.5 91 L 45.5 90 L 44 90.5 L 45 82.5 L 52.5 72 L 62.5 67 Z " /><path fill="rgb(144,99,208)" stroke="rgb(144,99,208)" stroke-width="1" opacity="0.9803921568627451" d="M 24.5 82 Q 26.8 81.3 26 83.5 L 24.5 82 Z " /><path fill="rgb(144,99,208)" stroke="rgb(144,99,208)" stroke-width="1" opacity="0.9803921568627451" d="M 72.5 97 L 73 100.5 L 71.5 104 L 70 103.5 Q 70.8 106.1 67.5 105 L 66.5 103 L 68 103.5 L 72.5 97 Z " /></svg>