<?xml version="1.0" standalone="no"?>
<!DOCTYPE svg PUBLIC "-//W3C//DTD SVG 20010904//EN"
 "http://www.w3.org/TR/2001/REC-SVG-20010904/DTD/svg10.dtd">
<svg version="1.0" xmlns="http://www.w3.org/2000/svg"
 width="500.000000pt" height="500.000000pt" viewBox="0 0 500.000000 500.000000"
 preserveAspectRatio="xMidYMid meet">
<metadata>
Created by potrace 1.16, written by Peter Selinger 2001-2019
</metadata>
<g transform="translate(0.000000,500.000000) scale(0.100000,-0.100000)"
fill="#000000" stroke="none">
<path d="M741 3305 c-5 -610 -3 -1083 4 -1140 28 -222 87 -423 179 -605 38
-75 130 -226 145 -240 4 -3 26 -31 49 -63 133 -179 340 -349 572 -468 107 -56
281 -124 354 -139 23 -4 75 -15 116 -24 193 -43 505 -39 717 9 101 23 262 74
306 96 16 9 17 44 17 514 0 278 -3 505 -6 505 -4 0 -35 -27 -71 -60 -35 -33
-76 -68 -91 -77 -15 -10 -33 -24 -41 -31 -24 -23 -164 -89 -240 -112 -188 -58
-431 -43 -616 37 -33 15 -67 32 -75 38 -8 6 -31 21 -52 32 -49 28 -89 63 -174
150 -116 118 -197 273 -235 448 -17 81 -19 140 -21 595 -1 338 -4 462 -9 375
-3 -71 -7 -160 -8 -197 -1 -73 -10 -83 -42 -45 -18 21 -18 21 -19 2 -1 -18 -2
-18 -13 -4 -7 8 -20 18 -29 22 -10 3 -18 10 -18 16 0 12 -106 63 -135 65 -13
0 -21 4 -18 9 2 4 -1 7 -6 7 -6 0 -13 0 -16 0 -3 0 -21 9 -40 20 -20 11 -41
20 -48 20 -7 0 -18 9 -25 20 -8 13 -23 20 -42 20 -19 0 -33 7 -40 20 -6 11
-18 20 -26 20 -8 0 -12 -4 -9 -10 3 -5 2 -10 -4 -10 -5 0 -13 5 -16 10 -3 6
-17 10 -31 10 -13 0 -24 5 -24 10 0 13 16 13 41 0 13 -7 19 -7 19 -1 0 12 -48
26 -57 18 -9 -10 -43 12 -43 28 0 8 -4 15 -10 15 -5 0 -10 -4 -10 -10 0 -5 -4
-10 -10 -10 -5 0 -10 8 -10 18 0 20 -37 42 -70 42 -10 0 -21 6 -23 13 -4 9 -8
8 -16 -3 -13 -18 -11 -35 -21 255 -6 191 -7 173 -9 -210z"/>
<path d="M2428 2499 c-38 -40 -89 -106 -114 -148 -54 -91 -100 -237 -109 -343
l-7 -78 354 -2 c194 -1 467 0 606 1 l252 3 0 -328 c1 -531 31 -879 89 -1014
11 -25 22 -52 25 -60 13 -35 66 -117 112 -172 111 -135 266 -237 453 -298 120
-39 150 -44 156 -28 3 7 4 418 3 913 -2 571 -6 860 -11 790 -10 -129 -14 -146
-27 -125 -9 13 -10 13 -11 0 0 -8 -5 -2 -11 15 -9 25 -12 27 -18 11 -6 -17 -7
-17 -20 0 -13 16 -13 17 0 10 8 -4 4 2 -9 13 -24 21 -57 29 -46 11 3 -5 1 -10
-4 -10 -6 0 -11 7 -11 16 0 8 -5 12 -10 9 -6 -3 -20 -3 -31 0 -17 6 -18 9 -8
16 18 11 9 18 -27 22 -41 5 -64 17 -64 33 0 9 -12 14 -35 14 -22 0 -38 6 -41
15 -4 8 -16 15 -29 15 -12 0 -30 9 -40 20 -18 20 -51 28 -40 10 3 -5 1 -10 -4
-10 -6 0 -11 7 -11 16 0 9 -5 12 -12 8 -6 -4 -8 -3 -4 4 8 13 -10 25 -42 28
-13 2 -50 19 -82 38 -39 23 -60 30 -64 23 -2 -7 -5 -5 -5 4 -1 11 -10 15 -31
14 -21 -1 -31 4 -36 17 -3 11 -12 17 -19 14 -8 -3 -19 2 -25 10 -7 8 -22 14
-34 14 -12 0 -37 10 -56 23 -49 32 -134 67 -164 67 -14 0 -26 5 -26 11 0 5 6
7 13 3 9 -6 9 -4 -1 8 -7 9 -27 21 -45 28 -18 7 -68 30 -112 50 -44 21 -111
52 -150 70 -38 18 -77 39 -87 47 -9 8 -31 17 -49 20 -40 6 -75 23 -109 53 -17
15 -33 20 -51 16 -24 -5 -76 23 -65 35 2 2 -3 11 -12 19 -14 13 -15 12 -10 -2
6 -13 1 -16 -25 -14 -18 1 -31 6 -30 10 5 16 61 64 68 58 5 -4 5 -1 1 6 -5 8
2 20 16 32 13 11 19 19 14 20 -5 0 -40 -32 -78 -71z"/>
</g>
</svg>
