<svg width="500" height="500" version="1.1" xmlns="http://www.w3.org/2000/svg" desc="Created with imagetracer.js version 1.2.6" ><path fill="rgb(136,175,225)" stroke="rgb(136,175,225)" stroke-width="1" opacity="0.8745098039215686" d="M 74.5 27 L 75 76.5 L 76 77.5 L 77 91.5 L 81.5 97 Q 83 94.5 84.5 98 L 96.5 104 L 100 104 Q 98.9 106.7 101.5 106 L 103 105.5 L 102.5 107 L 104.5 106 Q 105.8 109 110 108 Q 108.9 110.7 111.5 110 L 113.5 111 Q 115 108.5 116.5 112 Q 121.3 111.3 122 114.5 Q 120.3 119.8 125.5 118 L 127.5 120 L 139 123 Q 137.9 125.7 140.5 125 L 144 126 Q 143 129 146 128 L 146.5 123 L 149.5 130 L 153.5 124 L 154 127.5 L 154 129.5 L 154.5 131 L 156 129.5 L 156 91.5 L 154 80.5 L 155 80.5 L 156 82.5 L 155 84.5 L 158 98.5 L 158 128.5 L 157 129.5 L 156.5 148 L 155.5 146 L 154 152 L 151 150.5 L 150 147 Q 147.3 145.9 148 148.5 L 144.5 148 L 140 146.5 Q 142.3 145.3 139.5 144 L 130.5 140 L 128 141 L 126.5 138 L 123.5 136 L 114.5 134 L 106.5 128 L 104 128 Q 105.3 124.7 100.5 126 L 92.5 122 L 90.5 122 L 87 121 Q 88.3 118 84.5 119 Q 83 121.5 81.5 118 L 80 118 L 80 115 Q 76.2 116.5 77 113.5 L 77 111.5 L 75 103.5 L 75 88.5 Q 72.3 86.2 73 80.5 Q 75.8 78.8 74 72.5 L 73 68.5 L 74 67.5 L 74.5 27 Z " /><path fill="rgb(136,175,225)" stroke="rgb(136,175,225)" stroke-width="1" opacity="0.8745098039215686" d="M 149.5 66 L 150.5 68 L 149.5 66 Z " /><path fill="rgb(136,175,225)" stroke="rgb(136,175,225)" stroke-width="1" opacity="0.8745098039215686" d="M 150.5 69 Q 152.8 68.3 152 70.5 L 150.5 69 Z " /><path fill="rgb(136,175,225)" stroke="rgb(136,175,225)" stroke-width="1" opacity="0.8745098039215686" d="M 151.5 72 Q 154.5 71.1 153 75.5 L 154 77.5 L 153 77.5 L 151.5 72 Z " /><path fill="rgb(136,175,225)" stroke="rgb(136,175,225)" stroke-width="1" opacity="0.8745098039215686" d="M 199.5 97 L 198.5 99 L 193.5 100 L 193.5 99 L 199.5 97 Z " /><path fill="rgb(136,175,225)" stroke="rgb(136,175,225)" stroke-width="1" opacity="0.8745098039215686" d="M 188.5 100 L 191 100.5 L 179 106.5 L 178 108.5 L 178 131.5 L 179 132.5 L 180 149.5 L 181.5 154 L 183 144.5 L 182 140.5 L 183.5 138 L 187 146.5 L 187 154.5 L 188 155.5 L 188 157.5 L 188.5 159 L 190 156.5 L 190 154.5 Q 188.2 147.8 191.5 146 L 193.5 150 L 195.5 150 L 201 151.5 L 200.5 153 L 202.5 152 L 203.5 155 L 205.5 156 L 206.5 154 L 208 158 L 211.5 160 L 215.5 160 L 219.5 160 L 220 162 L 222.5 162 L 224.5 161 L 224 162.5 L 224 166 L 231.5 166 L 237 168.5 L 236.5 170 L 235.5 168 L 235 170 L 229.5 171 L 226.5 170 L 224 171 Q 222.8 174 226.5 173 L 227.5 172 L 237.5 172 L 239.5 170 L 240.5 171 L 252.5 171 L 253.5 172 L 267.5 173 L 283.5 178 L 297 184 Q 295.9 186.7 298.5 186 L 304 188.5 L 303.5 190 Q 311.6 192.4 316 198.5 Q 315.2 201.1 318.5 200 L 320.5 202 L 377.5 202 L 378.5 203 L 380.5 202 L 384.5 202 L 392 203.5 L 317.5 204 L 315 200 L 304 193 Q 305.1 190.3 302.5 191 L 299.5 188 L 279.5 178 L 275.5 178 L 271.5 176 L 256.5 173 L 255.5 174 L 244.5 174 L 238.5 172 L 238 174 L 224.5 176 L 220.5 176 L 215.5 176 L 208.5 179 L 208.5 177 L 200 175 L 200 173 L 197 173 Q 198.1 170.3 195.5 171 L 190 170 L 189.5 166 L 187.5 166 L 184.5 167 L 183.5 164 L 182.5 166 L 180 161.5 L 179 148.5 L 177 144.5 L 178 142.5 L 177 141.5 L 177 106.5 L 188.5 100 Z M 226 174 L 226 175 L 228 175 L 226 174 Z " /><path fill="rgb(136,175,225)" stroke="rgb(136,175,225)" stroke-width="1" opacity="0.8745098039215686" d="M 73.5 116 L 74 118.5 L 73 118.5 L 73.5 116 Z " /><path fill="rgb(136,175,225)" stroke="rgb(136,175,225)" stroke-width="1" opacity="0.8745098039215686" d="M 375.5 144 L 376.5 146 L 375.5 144 Z " /><path fill="rgb(136,175,225)" stroke="rgb(136,175,225)" stroke-width="1" opacity="0.8745098039215686" d="M 401.5 179 L 402.5 181 L 401.5 179 Z " /><path fill="rgb(136,175,225)" stroke="rgb(136,175,225)" stroke-width="1" opacity="0.8745098039215686" d="M 411.5 199 Q 414.5 200.5 411.5 202 L 411.5 199 Z " /><path fill="rgb(136,175,225)" stroke="rgb(136,175,225)" stroke-width="1" opacity="0.8745098039215686" d="M 336.5 223 L 387.5 223 L 401.5 227 L 406.5 231 L 408.5 231 L 415 237.5 L 417 240.5 L 422 248.5 L 425 259.5 L 425 261.5 L 424 263.5 L 425 266.5 L 424 269.5 L 423.5 278 L 422.5 272 L 421.5 280 L 420.5 276 L 420 279 Q 417.3 280.1 418 277.5 Q 416.8 274.8 411.5 276 L 404 272 Q 405.1 269.3 402.5 270 L 393 265.5 L 392.5 264 L 391.5 266 L 380 260.5 L 378.5 257 L 376.5 256 L 367 256 L 365.5 251 L 362.5 253 Q 361.2 249.2 357 250 Q 358.3 246.7 353.5 248 L 340.5 240 L 337.5 240 L 331 236.5 L 331.5 235 L 320.5 231 L 318.5 231 L 315 229.5 L 317 229 Q 318.1 225.5 310.5 227 L 310.5 226 Q 317 227.5 318.5 224 L 335.5 224 L 336.5 223 Z M 319 225 L 319 226 L 322 226 L 319 225 Z M 372 225 L 371 226 L 358 227 Q 359 229 361 227 L 366 228 L 362 228 L 364 232 Q 369 231 369 234 L 373 234 L 374 237 L 377 236 L 378 237 L 375 239 L 382 241 L 386 239 L 390 242 L 394 242 L 396 246 L 399 246 L 400 249 L 405 249 Q 405 253 411 252 L 414 256 L 417 255 L 418 258 L 418 260 L 421 260 L 419 252 L 419 247 Q 416 246 416 242 Q 414 237 413 240 L 413 238 Q 410 239 411 237 Q 405 229 395 226 L 374 225 L 372 225 Z " /><path fill="rgb(119,230,240)" stroke="rgb(119,230,240)" stroke-width="1" opacity="0.996078431372549" d="M 76.5 2 L 81.5 4 L 83.5 4 L 88.5 5 L 92.5 8 L 106 13 L 107.5 16 Q 111.3 15.3 112 17.5 L 113.5 20 Q 119.3 21.3 122 25.5 Q 121.3 27.8 123.5 27 L 131 36 L 134 37.5 L 148 63.5 L 154 86.5 L 153 88.5 L 153.5 90 L 148 92.5 L 149 95.5 L 147 94.5 L 145.5 88 L 144 88.5 L 142.5 86 L 140.5 85 L 138.5 85 L 136.5 84 L 134.5 84 L 130.5 84 L 122 78.5 L 120.5 76 L 98 68 L 94.5 63 L 83 59 L 82.5 57 L 81.5 59 L 81 57 L 77 58 L 76 51.5 L 75 3.5 L 76.5 2 Z M 147 85 L 147 87 Q 145 88 148 89 L 149 86 L 147 85 Z " /><path fill="rgb(119,230,240)" stroke="rgb(119,230,240)" stroke-width="1" opacity="0.996078431372549" d="M 235.5 91 L 267.5 91 L 273.5 93 L 286.5 94 L 294.5 96 L 311.5 103 L 313 102.5 L 313.5 104 L 315.5 104 L 335.5 113 L 338.5 116 L 341 116 Q 339.9 118.7 342.5 118 L 359 129.5 L 360.5 132 Q 364.5 131.5 365 134.5 Q 364.3 136.8 366.5 136 L 376 145.5 L 376 147 L 379 148.5 L 380.5 151 L 384 153.5 L 384 155.5 L 400 176.5 L 400 179.5 Q 407.5 188.5 411 201.5 L 400.5 202 L 384.5 199 L 381.5 201 L 380 198 L 375.5 197 L 373.5 198 Q 372.2 195.8 367.5 197 L 360.5 198 L 359 196.5 L 368 196 L 367.5 194 L 360.5 194 L 359 190 L 339.5 182 L 336 178.5 Q 336.9 175.5 332.5 177 L 326.5 174 L 324.5 175 L 320 172.5 Q 320.8 168.8 318.5 168 Q 313.9 168.6 312.5 166 L 311.5 168 L 300 164 Q 301.1 161.3 298.5 162 L 295 161 L 294.5 159 L 291.5 160 L 289 159.5 L 286.5 154 L 281.5 154 L 273 151 L 272.5 149 L 270.5 149 Q 264.8 148.8 262 145.5 L 261.5 144 L 260.5 146 L 258.5 143 L 260 143.5 Q 260.8 140.9 257.5 142 L 255 140.5 Q 257.3 139.3 254.5 138 L 254 140 L 239 134.5 L 240 132 Q 237.3 130.9 238 133.5 L 236.5 133 L 235 132.5 L 237 131.5 L 234 130 L 233.5 132 L 228.5 128 L 220 126 Q 221.1 123.3 218.5 124 L 213 121 Q 214.1 118.3 211.5 119 L 204.5 114 L 204 116 Q 200.9 116.8 201.5 114 L 196 114 L 196 112 L 198 111.5 L 191.5 111 Q 191 107.5 186.5 108 L 183.5 112 L 181 110.5 Q 180.3 105.8 183.5 105 L 187.5 105 L 195.5 100 Q 203 99.5 207.5 96 L 235.5 91 Z " /><path fill="rgb(188,246,246)" stroke="rgb(188,246,246)" stroke-width="1" opacity="0.36470588235294116" d="M 74.5 0 L 79.5 0 L 88.5 4 L 91.5 4 L 105.5 11 Q 121 19.5 132 32.5 L 144 48.5 L 152 65.5 L 157 82.5 L 158 97.5 L 157 97.5 L 157 90.5 L 155 83.5 L 155 81.5 Q 146.6 46.4 123.5 26 Q 104.8 8.2 75.5 1 L 74 2.5 L 73.5 68 L 73 1.5 L 74.5 0 Z " /><path fill="rgb(188,246,246)" stroke="rgb(188,246,246)" stroke-width="1" opacity="0.36470588235294116" d="M 73.5 72 L 74 79.5 L 73 79.5 L 73.5 72 Z " /><path fill="rgb(188,246,246)" stroke="rgb(188,246,246)" stroke-width="1" opacity="0.36470588235294116" d="M 73.5 85 L 74 115.5 L 73 115.5 L 73.5 85 Z " /><path fill="rgb(188,246,246)" stroke="rgb(188,246,246)" stroke-width="1" opacity="0.36470588235294116" d="M 233.5 89 L 265.5 89 L 273.5 91 L 281.5 91 L 294.5 95 L 298.5 95 L 309.5 100 L 315.5 101 L 332.5 109 L 361 128.5 Q 360.3 130.8 362.5 130 L 380 146.5 Q 379.3 148.8 381.5 148 L 400 172.5 L 409 188.5 L 413 197.5 L 414 203.5 L 412.5 205 L 318.5 205 L 318.5 204 L 391.5 204 L 396.5 203 L 398.5 203 L 411.5 203 L 412 201.5 Q 414.5 200 411 198.5 Q 396.2 162.3 369.5 138 Q 344.2 113.8 308.5 100 L 277.5 92 L 260.5 91 L 259.5 90 L 239.5 90 L 238.5 91 L 227.5 91 L 226.5 92 L 215.5 93 L 189.5 100 L 189.5 99 L 212.5 92 L 225.5 91 L 233.5 89 Z " /><path fill="rgb(188,246,246)" stroke="rgb(188,246,246)" stroke-width="1" opacity="0.36470588235294116" d="M 158.5 100 L 159 274.5 L 161 284.5 L 160 284.5 L 158 274.5 L 158.5 100 Z " /><path fill="rgb(188,246,246)" stroke="rgb(188,246,246)" stroke-width="1" opacity="0.36470588235294116" d="M 185.5 100 L 188 100.5 L 177 106.5 L 177 207.5 L 178.5 208 L 182 205.5 Q 180.7 209.8 176 209 L 176 105.5 L 177.5 104 L 185.5 100 Z " /><path fill="rgb(188,246,246)" stroke="rgb(188,246,246)" stroke-width="1" opacity="0.36470588235294116" d="M 73.5 119 L 74 121.5 L 73 121.5 L 73.5 119 Z " /><path fill="rgb(188,246,246)" stroke="rgb(188,246,246)" stroke-width="1" opacity="0.36470588235294116" d="M 73.5 123 L 74 129.5 L 73 129.5 L 73.5 123 Z " /><path fill="rgb(188,246,246)" stroke="rgb(188,246,246)" stroke-width="1" opacity="0.36470588235294116" d="M 73.5 135 L 74 142.5 L 73 142.5 L 73.5 135 Z " /><path fill="rgb(188,246,246)" stroke="rgb(188,246,246)" stroke-width="1" opacity="0.36470588235294116" d="M 73.5 145 L 74 148.5 L 73 148.5 L 73.5 145 Z " /><path fill="rgb(188,246,246)" stroke="rgb(188,246,246)" stroke-width="1" opacity="0.36470588235294116" d="M 73.5 152 L 74 155.5 L 73 155.5 L 73.5 152 Z " /><path fill="rgb(188,246,246)" stroke="rgb(188,246,246)" stroke-width="1" opacity="0.36470588235294116" d="M 73.5 158 L 74 160.5 L 73 160.5 L 73.5 158 Z " /><path fill="rgb(188,246,246)" stroke="rgb(188,246,246)" stroke-width="1" opacity="0.36470588235294116" d="M 73.5 163 L 74 165.5 L 73 165.5 L 73.5 163 Z " /><path fill="rgb(188,246,246)" stroke="rgb(188,246,246)" stroke-width="1" opacity="0.36470588235294116" d="M 236.5 174 L 243 174.5 L 224.5 178 L 224.5 177 L 236.5 174 Z " /><path fill="rgb(188,246,246)" stroke="rgb(188,246,246)" stroke-width="1" opacity="0.36470588235294116" d="M 255.5 174 L 262 174.5 L 255.5 175 L 255.5 174 Z " /><path fill="rgb(188,246,246)" stroke="rgb(188,246,246)" stroke-width="1" opacity="0.36470588235294116" d="M 263.5 175 L 267.5 175 L 275 177.5 L 271.5 178 L 263.5 176 L 263.5 175 Z " /><path fill="rgb(188,246,246)" stroke="rgb(188,246,246)" stroke-width="1" opacity="0.36470588235294116" d="M 220.5 178 L 223 178.5 Q 211.9 180.9 204.5 187 L 206.5 184 L 220.5 178 Z " /><path fill="rgb(188,246,246)" stroke="rgb(188,246,246)" stroke-width="1" opacity="0.36470588235294116" d="M 276.5 178 L 279.5 178 L 288.5 182 L 304 191 Q 302.9 193.7 305.5 193 L 317 203.5 L 312.5 200 L 295.5 187 L 281.5 180 L 276.5 179 L 276.5 178 Z " /><path fill="rgb(188,246,246)" stroke="rgb(188,246,246)" stroke-width="1" opacity="0.36470588235294116" d="M 73.5 181 L 74 202.5 L 73 202.5 L 73.5 181 Z " /><path fill="rgb(188,246,246)" stroke="rgb(188,246,246)" stroke-width="1" opacity="0.36470588235294116" d="M 200.5 188 L 198.5 191 Q 189.1 196.1 182.5 204 L 189.5 196 L 200.5 188 Z " /><path fill="rgb(188,246,246)" stroke="rgb(188,246,246)" stroke-width="1" opacity="0.36470588235294116" d="M 73.5 215 L 74 219.5 L 73 219.5 L 73.5 215 Z " /><path fill="rgb(188,246,246)" stroke="rgb(188,246,246)" stroke-width="1" opacity="0.36470588235294116" d="M 305.5 222 L 387 222.5 L 305.5 223 L 305.5 222 Z " /><path fill="rgb(188,246,246)" stroke="rgb(188,246,246)" stroke-width="1" opacity="0.36470588235294116" d="M 73.5 223 L 74 226.5 L 73 226.5 L 73.5 223 Z " /><path fill="rgb(188,246,246)" stroke="rgb(188,246,246)" stroke-width="1" opacity="0.36470588235294116" d="M 291.5 223 L 302 223.5 L 291.5 224 L 282.5 226 L 282.5 225 L 291.5 223 Z " /><path fill="rgb(188,246,246)" stroke="rgb(188,246,246)" stroke-width="1" opacity="0.36470588235294116" d="M 388.5 223 L 392.5 223 L 399 225.5 L 396.5 226 Q 394.2 223.3 388.5 224 L 388.5 223 Z " /><path fill="rgb(188,246,246)" stroke="rgb(188,246,246)" stroke-width="1" opacity="0.36470588235294116" d="M 277.5 226 L 280 226.5 L 266.5 232 L 267.5 230 L 277.5 226 Z " /><path fill="rgb(188,246,246)" stroke="rgb(188,246,246)" stroke-width="1" opacity="0.36470588235294116" d="M 400.5 226 L 408 230.5 L 406.5 231 L 400.5 227 L 400.5 226 Z " /><path fill="rgb(188,246,246)" stroke="rgb(188,246,246)" stroke-width="1" opacity="0.36470588235294116" d="M 409.5 231 L 419 241.5 L 417 240.5 L 415 237.5 L 409.5 231 Z " /><path fill="rgb(188,246,246)" stroke="rgb(188,246,246)" stroke-width="1" opacity="0.36470588235294116" d="M 73.5 232 L 74 236.5 L 73 236.5 L 73.5 232 Z " /><path fill="rgb(188,246,246)" stroke="rgb(188,246,246)" stroke-width="1" opacity="0.36470588235294116" d="M 264.5 232 L 263.5 234 L 255.5 239 L 258.5 235 L 264.5 232 Z " /><path fill="rgb(188,246,246)" stroke="rgb(188,246,246)" stroke-width="1" opacity="0.36470588235294116" d="M 253.5 239 L 252.5 241 L 243 248.5 Q 243.8 250.8 241.5 250 L 245.5 245 L 253.5 239 Z " /><path fill="rgb(188,246,246)" stroke="rgb(188,246,246)" stroke-width="1" opacity="0.36470588235294116" d="M 419.5 243 L 422 247.5 L 421 247.5 L 419.5 243 Z " /><path fill="rgb(188,246,246)" stroke="rgb(188,246,246)" stroke-width="1" opacity="0.36470588235294116" d="M 240.5 251 L 237 255.5 L 234.5 259 L 236 256.5 L 240.5 251 Z " /><path fill="rgb(188,246,246)" stroke="rgb(188,246,246)" stroke-width="1" opacity="0.36470588235294116" d="M 423.5 252 Q 425.8 253.8 425 258.5 L 424 258.5 L 423.5 252 Z " /><path fill="rgb(188,246,246)" stroke="rgb(188,246,246)" stroke-width="1" opacity="0.36470588235294116" d="M 233.5 260 L 233 261.5 L 226.5 274 L 226 272.5 L 233.5 260 Z " /><path fill="rgb(188,246,246)" stroke="rgb(188,246,246)" stroke-width="1" opacity="0.36470588235294116" d="M 425.5 260 L 426 497.5 Q 425.3 499.8 421.5 499 L 415 496.5 L 417.5 496 L 423.5 498 L 425 496.5 L 425.5 260 Z " /><path fill="rgb(188,246,246)" stroke="rgb(188,246,246)" stroke-width="1" opacity="0.36470588235294116" d="M 73.5 265 L 74 269.5 L 73 269.5 L 73.5 265 Z " /><path fill="rgb(188,246,246)" stroke="rgb(188,246,246)" stroke-width="1" opacity="0.36470588235294116" d="M 224.5 277 L 225 279.5 L 222.5 286 L 222 283.5 L 224.5 277 Z " /><path fill="rgb(188,246,246)" stroke="rgb(188,246,246)" stroke-width="1" opacity="0.36470588235294116" d="M 74.5 283 L 75 289.5 L 74 289.5 L 74.5 283 Z " /><path fill="rgb(188,246,246)" stroke="rgb(188,246,246)" stroke-width="1" opacity="0.36470588235294116" d="M 221.5 287 L 222 289.5 L 221 289.5 L 221.5 287 Z " /><path fill="rgb(188,246,246)" stroke="rgb(188,246,246)" stroke-width="1" opacity="0.36470588235294116" d="M 75.5 291 L 76 294.5 L 75 294.5 L 75.5 291 Z " /><path fill="rgb(188,246,246)" stroke="rgb(188,246,246)" stroke-width="1" opacity="0.36470588235294116" d="M 162.5 291 L 164 294.5 L 163 294.5 L 162.5 291 Z " /><path fill="rgb(188,246,246)" stroke="rgb(188,246,246)" stroke-width="1" opacity="0.36470588235294116" d="M 220.5 294 L 221 299.5 L 220 300.5 L 220 307 L 285 307.5 L 220.5 308 Q 217.5 306.5 219 300.5 L 220.5 294 Z " /><path fill="rgb(188,246,246)" stroke="rgb(188,246,246)" stroke-width="1" opacity="0.36470588235294116" d="M 76.5 296 L 77 299.5 L 76 299.5 L 76.5 296 Z " /><path fill="rgb(188,246,246)" stroke="rgb(188,246,246)" stroke-width="1" opacity="0.36470588235294116" d="M 166.5 301 L 170 307.5 L 168 306.5 L 166.5 301 Z " /><path fill="rgb(188,246,246)" stroke="rgb(188,246,246)" stroke-width="1" opacity="0.36470588235294116" d="M 78.5 307 L 81 315.5 L 80 315.5 L 78.5 307 Z " /><path fill="rgb(188,246,246)" stroke="rgb(188,246,246)" stroke-width="1" opacity="0.36470588235294116" d="M 286.5 307 L 289 307.5 L 286.5 308 L 286.5 307 Z " /><path fill="rgb(188,246,246)" stroke="rgb(188,246,246)" stroke-width="1" opacity="0.36470588235294116" d="M 306.5 307 L 341 307 L 341 376.5 L 340 376.5 L 340 308 L 306.5 308 L 306.5 307 Z " /><path fill="rgb(188,246,246)" stroke="rgb(188,246,246)" stroke-width="1" opacity="0.36470588235294116" d="M 170.5 309 L 174 314.5 L 172 313.5 L 170.5 309 Z " /><path fill="rgb(188,246,246)" stroke="rgb(188,246,246)" stroke-width="1" opacity="0.36470588235294116" d="M 174.5 316 L 180 322.5 L 175 318.5 L 174.5 316 Z " /><path fill="rgb(188,246,246)" stroke="rgb(188,246,246)" stroke-width="1" opacity="0.36470588235294116" d="M 82.5 321 L 85 327.5 L 84 327.5 L 82.5 321 Z " /><path fill="rgb(188,246,246)" stroke="rgb(188,246,246)" stroke-width="1" opacity="0.36470588235294116" d="M 180.5 324 L 189.5 334 L 180.5 324 Z " /><path fill="rgb(188,246,246)" stroke="rgb(188,246,246)" stroke-width="1" opacity="0.36470588235294116" d="M 318.5 324 L 321 324.5 L 321 425.5 L 319 426.5 L 320 425.5 L 320 325 L 318.5 325 L 308.5 335 L 309 333.5 Q 308.3 331.3 310.5 332 L 318.5 324 Z " /><path fill="rgb(188,246,246)" stroke="rgb(188,246,246)" stroke-width="1" opacity="0.36470588235294116" d="M 87.5 334 L 91 340.5 L 89 339.5 L 87.5 334 Z " /><path fill="rgb(188,246,246)" stroke="rgb(188,246,246)" stroke-width="1" opacity="0.36470588235294116" d="M 192.5 335 L 194.5 338 L 192.5 335 Z " /><path fill="rgb(188,246,246)" stroke="rgb(188,246,246)" stroke-width="1" opacity="0.36470588235294116" d="M 306.5 335 L 303.5 339 L 301.5 340 L 302.5 338 L 306.5 335 Z " /><path fill="rgb(188,246,246)" stroke="rgb(188,246,246)" stroke-width="1" opacity="0.36470588235294116" d="M 196.5 339 L 202 342.5 L 200.5 342 Q 195.8 341.2 196.5 339 Z " /><path fill="rgb(188,246,246)" stroke="rgb(188,246,246)" stroke-width="1" opacity="0.36470588235294116" d="M 299.5 340 L 297.5 343 L 287.5 348 L 287.5 347 L 299.5 340 Z " /><path fill="rgb(188,246,246)" stroke="rgb(188,246,246)" stroke-width="1" opacity="0.36470588235294116" d="M 91.5 343 L 95 348.5 L 93 347.5 L 91.5 343 Z " /><path fill="rgb(188,246,246)" stroke="rgb(188,246,246)" stroke-width="1" opacity="0.36470588235294116" d="M 205.5 344 L 209 346.5 L 207.5 347 L 205.5 344 Z " /><path fill="rgb(188,246,246)" stroke="rgb(188,246,246)" stroke-width="1" opacity="0.36470588235294116" d="M 212.5 348 L 218 350.5 L 216.5 351 L 212.5 349 L 212.5 348 Z " /><path fill="rgb(188,246,246)" stroke="rgb(188,246,246)" stroke-width="1" opacity="0.36470588235294116" d="M 285.5 348 L 284.5 350 L 278.5 352 L 278.5 351 L 285.5 348 Z " /><path fill="rgb(188,246,246)" stroke="rgb(188,246,246)" stroke-width="1" opacity="0.36470588235294116" d="M 222.5 352 L 225 352.5 L 222.5 353 L 222.5 352 Z " /><path fill="rgb(188,246,246)" stroke="rgb(188,246,246)" stroke-width="1" opacity="0.36470588235294116" d="M 226.5 353 L 233 354.5 L 229.5 355 L 226.5 354 L 226.5 353 Z " /><path fill="rgb(188,246,246)" stroke="rgb(188,246,246)" stroke-width="1" opacity="0.36470588235294116" d="M 270.5 353 L 273 353.5 L 265.5 356 L 260.5 356 L 260.5 355 Q 267.2 355.7 270.5 353 Z " /><path fill="rgb(188,246,246)" stroke="rgb(188,246,246)" stroke-width="1" opacity="0.36470588235294116" d="M 97.5 354 L 98.5 356 L 97.5 354 Z " /><path fill="rgb(188,246,246)" stroke="rgb(188,246,246)" stroke-width="1" opacity="0.36470588235294116" d="M 234.5 355 L 239 355.5 L 234.5 356 L 234.5 355 Z " /><path fill="rgb(188,246,246)" stroke="rgb(188,246,246)" stroke-width="1" opacity="0.36470588235294116" d="M 251.5 356 L 255 356.5 L 251.5 357 L 251.5 356 Z " /><path fill="rgb(188,246,246)" stroke="rgb(188,246,246)" stroke-width="1" opacity="0.36470588235294116" d="M 99.5 357 L 104 363.5 L 102 362.5 L 99.5 357 Z " /><path fill="rgb(188,246,246)" stroke="rgb(188,246,246)" stroke-width="1" opacity="0.36470588235294116" d="M 104.5 365 L 113 375.5 L 109 372.5 L 104.5 365 Z " /><path fill="rgb(188,246,246)" stroke="rgb(188,246,246)" stroke-width="1" opacity="0.36470588235294116" d="M 113.5 377 L 117.5 382 L 113.5 377 Z " /><path fill="rgb(188,246,246)" stroke="rgb(188,246,246)" stroke-width="1" opacity="0.36470588235294116" d="M 341.5 378 L 342 393.5 L 341 393.5 L 341.5 378 Z " /><path fill="rgb(188,246,246)" stroke="rgb(188,246,246)" stroke-width="1" opacity="0.36470588235294116" d="M 120.5 385 L 130.5 396 L 120.5 385 Z " /><path fill="rgb(188,246,246)" stroke="rgb(188,246,246)" stroke-width="1" opacity="0.36470588235294116" d="M 342.5 395 L 343 404.5 L 342 404.5 L 342.5 395 Z " /><path fill="rgb(188,246,246)" stroke="rgb(188,246,246)" stroke-width="1" opacity="0.36470588235294116" d="M 133.5 397 L 136.5 401 L 133.5 397 Z " /><path fill="rgb(188,246,246)" stroke="rgb(188,246,246)" stroke-width="1" opacity="0.36470588235294116" d="M 138.5 401 L 141.5 405 L 138.5 401 Z " /><path fill="rgb(188,246,246)" stroke="rgb(188,246,246)" stroke-width="1" opacity="0.36470588235294116" d="M 143.5 405 L 147 407 L 146.5 409 L 143.5 405 Z " /><path fill="rgb(188,246,246)" stroke="rgb(188,246,246)" stroke-width="1" opacity="0.36470588235294116" d="M 148.5 409 L 155 413.5 L 153.5 413 Q 148.9 411.8 148.5 409 Z " /><path fill="rgb(188,246,246)" stroke="rgb(188,246,246)" stroke-width="1" opacity="0.36470588235294116" d="M 343.5 412 L 344 416.5 L 343 416.5 L 343.5 412 Z " /><path fill="rgb(188,246,246)" stroke="rgb(188,246,246)" stroke-width="1" opacity="0.36470588235294116" d="M 156.5 414 L 169 421.5 L 167.5 422 L 158.5 417 L 156.5 414 Z " /><path fill="rgb(188,246,246)" stroke="rgb(188,246,246)" stroke-width="1" opacity="0.36470588235294116" d="M 344.5 419 L 347 432.5 L 346 432.5 L 344 423.5 L 344.5 419 Z " /><path fill="rgb(188,246,246)" stroke="rgb(188,246,246)" stroke-width="1" opacity="0.36470588235294116" d="M 172.5 423 L 180 426.5 L 178.5 427 L 172.5 424 L 172.5 423 Z " /><path fill="rgb(188,246,246)" stroke="rgb(188,246,246)" stroke-width="1" opacity="0.36470588235294116" d="M 181.5 427 L 190 430.5 L 187.5 431 L 181.5 428 L 181.5 427 Z " /><path fill="rgb(188,246,246)" stroke="rgb(188,246,246)" stroke-width="1" opacity="0.36470588235294116" d="M 317.5 427 L 316.5 429 L 309.5 431 L 309.5 430 L 317.5 427 Z " /><path fill="rgb(188,246,246)" stroke="rgb(188,246,246)" stroke-width="1" opacity="0.36470588235294116" d="M 191.5 431 L 202 434.5 L 200.5 435 L 191.5 432 L 191.5 431 Z " /><path fill="rgb(188,246,246)" stroke="rgb(188,246,246)" stroke-width="1" opacity="0.36470588235294116" d="M 306.5 431 L 308 431.5 L 297.5 435 L 297.5 434 L 306.5 431 Z " /><path fill="rgb(188,246,246)" stroke="rgb(188,246,246)" stroke-width="1" opacity="0.36470588235294116" d="M 205.5 435 L 211 436.5 L 208.5 437 L 205.5 436 L 205.5 435 Z " /><path fill="rgb(188,246,246)" stroke="rgb(188,246,246)" stroke-width="1" opacity="0.36470588235294116" d="M 292.5 435 L 295 435.5 L 292.5 436 L 292.5 435 Z " /><path fill="rgb(188,246,246)" stroke="rgb(188,246,246)" stroke-width="1" opacity="0.36470588235294116" d="M 288.5 436 L 291 436.5 L 279.5 439 L 279.5 438 L 288.5 436 Z " /><path fill="rgb(188,246,246)" stroke="rgb(188,246,246)" stroke-width="1" opacity="0.36470588235294116" d="M 212.5 437 L 221 438.5 L 216.5 439 L 212.5 438 L 212.5 437 Z " /><path fill="rgb(188,246,246)" stroke="rgb(188,246,246)" stroke-width="1" opacity="0.36470588235294116" d="M 348.5 438 L 352 445.5 L 351 445.5 L 348.5 438 Z " /><path fill="rgb(188,246,246)" stroke="rgb(188,246,246)" stroke-width="1" opacity="0.36470588235294116" d="M 224.5 439 L 229 439.5 L 224.5 440 L 224.5 439 Z " /><path fill="rgb(188,246,246)" stroke="rgb(188,246,246)" stroke-width="1" opacity="0.36470588235294116" d="M 270.5 439 L 275 439.5 L 270.5 440 L 270.5 439 Z " /><path fill="rgb(188,246,246)" stroke="rgb(188,246,246)" stroke-width="1" opacity="0.36470588235294116" d="M 232.5 440 L 245 440.5 L 232.5 441 L 232.5 440 Z " /><path fill="rgb(188,246,246)" stroke="rgb(188,246,246)" stroke-width="1" opacity="0.36470588235294116" d="M 255.5 440 L 267 440.5 L 255.5 441 L 255.5 440 Z " /><path fill="rgb(188,246,246)" stroke="rgb(188,246,246)" stroke-width="1" opacity="0.36470588235294116" d="M 352.5 448 L 356 453.5 L 355 453.5 L 352.5 448 Z " /><path fill="rgb(188,246,246)" stroke="rgb(188,246,246)" stroke-width="1" opacity="0.36470588235294116" d="M 356.5 455 L 360 459.5 L 357 457.5 L 356.5 455 Z " /><path fill="rgb(188,246,246)" stroke="rgb(188,246,246)" stroke-width="1" opacity="0.36470588235294116" d="M 361.5 462 L 372 473.5 L 365 467.5 L 361.5 462 Z " /><path fill="rgb(188,246,246)" stroke="rgb(188,246,246)" stroke-width="1" opacity="0.36470588235294116" d="M 373.5 474 L 377.5 479 L 373.5 474 Z " /><path fill="rgb(188,246,246)" stroke="rgb(188,246,246)" stroke-width="1" opacity="0.36470588235294116" d="M 379.5 479 L 384 482.5 L 382.5 482 L 379.5 479 Z " /><path fill="rgb(188,246,246)" stroke="rgb(188,246,246)" stroke-width="1" opacity="0.36470588235294116" d="M 385.5 483 L 391 486.5 L 389.5 487 L 385.5 483 Z " /><path fill="rgb(188,246,246)" stroke="rgb(188,246,246)" stroke-width="1" opacity="0.36470588235294116" d="M 392.5 487 L 399 490.5 L 397.5 491 Q 392.9 489.8 392.5 487 Z " /><path fill="rgb(188,246,246)" stroke="rgb(188,246,246)" stroke-width="1" opacity="0.36470588235294116" d="M 403.5 492 L 413 495.5 L 410.5 496 L 403.5 493 L 403.5 492 Z " /><path fill="rgb(0,0,0)" stroke="rgb(0,0,0)" stroke-width="1" opacity="0" d="M 0 0 L 74 0.5 L 73 1.5 L 73 273.5 L 74 274.5 L 74 289.5 L 78 304.5 L 78 309.5 L 83 325.5 L 87 332.5 L 87 335.5 L 106 368.5 L 130.5 396 L 158.5 417 L 187.5 431 L 216.5 439 L 223.5 439 L 232.5 441 L 247.5 441 L 249.5 442 L 250.5 441 L 266.5 441 L 267.5 440 L 287.5 438 L 314.5 430 L 321 425.5 L 321 324.5 L 318.5 324 L 309 332 L 307.5 335 Q 294.6 345.6 277.5 352 L 259.5 356 L 239.5 356 L 221.5 352 L 209.5 347 Q 192 338 180 323.5 Q 170.9 312.6 165 298.5 L 162 290.5 L 159 274.5 L 159 100.5 L 158 99.5 L 157 82.5 L 152 65.5 L 144 48.5 Q 134.5 33.5 121.5 22 Q 104.4 7.6 80 0.5 L 500 0 L 500 500 L 0 500 L 0 0 Z M 234 89 L 226 91 L 218 91 L 205 95 L 201 95 L 189 100 L 186 100 L 176 106 L 176 209 L 179 209 L 182 205 Q 194 191 211 183 L 224 178 L 244 174 L 263 175 L 282 180 L 302 191 L 319 205 L 413 205 L 414 204 L 413 198 L 409 189 L 400 173 L 382 148 Q 379 149 380 147 L 363 130 Q 360 131 361 129 L 333 109 L 316 101 L 310 100 L 299 95 L 295 95 L 282 91 L 274 91 L 266 89 L 234 89 Z M 306 222 L 305 223 L 292 223 L 278 226 L 259 235 L 246 245 Q 233 256 226 273 L 221 288 L 219 307 L 221 308 L 340 308 L 340 377 L 341 378 L 341 394 L 342 395 L 344 424 Q 349 451 365 468 L 388 486 L 408 495 Q 416 495 422 499 Q 425 500 426 498 L 426 261 L 422 247 L 418 240 L 404 227 L 387 222 L 306 222 Z " /><path fill="rgb(143,111,212)" stroke="rgb(143,111,212)" stroke-width="1" opacity="0.9686274509803922" d="M 74.5 128 L 75.5 155 L 76.5 152 L 80 160 L 84 160 Q 83 157 86 158 Q 87.1 160.7 84.5 160 L 85.5 162 Q 89.3 161.3 90 163.5 Q 89.3 165.8 91.5 165 L 95.5 167 L 97.5 167 L 99 167.5 L 97 168.5 L 104 170 Q 102.7 173.3 107.5 172 Q 110.3 177.4 113 175.5 L 113.5 177 L 115.5 177 L 120 178 Q 118.7 181.3 123.5 180 L 127.5 183 Q 129 180.5 130.5 184 L 146 190 L 146.5 187 L 149 192 Q 152.7 190.5 152 193.5 L 153 193.5 L 155 190.5 L 157 190.5 L 157.5 178 L 158 203.5 L 158 205.5 Q 155.6 210.6 157 219.5 L 156 220.5 L 156 235.5 L 154.5 237 L 150 235 L 148.5 230 L 148 233 L 144.5 231 L 140.5 232 L 139 229 L 130.5 224 L 127 224.5 Q 129.3 223.3 126.5 222 L 122.5 221 L 120 222 L 118.5 219 L 104.5 212 L 103.5 214 L 96 211 Q 97.8 206.1 91.5 208 L 83 203 L 81.5 200 L 81 202 Q 77.3 203.5 78 200.5 L 76 196.5 L 75 166.5 L 74 165.5 L 74 163.5 L 74.5 128 Z M 121 218 Q 119 221 122 220 L 121 218 Z " /><path fill="rgb(143,111,212)" stroke="rgb(143,111,212)" stroke-width="1" opacity="0.9686274509803922" d="M 177.5 192 Q 177 199.5 180.5 203 L 181 201 L 183.5 200 L 182 202.5 L 179.5 207 L 177 206 L 177.5 192 Z " /><path fill="rgb(143,111,212)" stroke="rgb(143,111,212)" stroke-width="1" opacity="0.9686274509803922" d="M 193.5 192 L 192.5 194 L 190.5 195 L 191.5 193 L 193.5 192 Z " /><path fill="rgb(143,111,212)" stroke="rgb(143,111,212)" stroke-width="1" opacity="0.9686274509803922" d="M 186.5 197 L 186 198.5 L 185.5 200 L 185 198.5 L 186.5 197 Z " /><path fill="rgb(143,111,212)" stroke="rgb(143,111,212)" stroke-width="1" opacity="0.9686274509803922" d="M 73.5 227 L 74 231.5 L 73 231.5 L 73.5 227 Z " /><path fill="rgb(143,111,212)" stroke="rgb(143,111,212)" stroke-width="1" opacity="0.9686274509803922" d="M 263.5 234 L 262.5 239 L 264 239.5 L 262.5 240 L 260 239 L 260 241 L 255 241 L 255 242.5 L 256 246 L 259.5 245 L 271.5 253 L 276.5 252 L 279.5 255 L 285.5 257 Q 286.8 254.8 288 257.5 L 289.5 260 L 299.5 265 L 301.5 265 L 306.5 264 L 313 267.5 L 311 268.5 L 317.5 273 L 320 272 L 321.5 276 L 335.5 280 L 337.5 280 L 341 281.5 Q 338.8 282.8 341.5 284 L 351.5 288 L 353.5 288 Q 358.8 286.8 360 289.5 L 360.5 293 L 361.5 292 L 366 296.5 L 366.5 298 L 367 296 L 370.5 296 L 377 299.5 L 376.5 301 L 384 304 Q 382.7 307.3 387.5 306 L 415.5 320 L 416 317.5 L 415.5 316 L 418 317.5 L 419.5 320 Q 423.7 321.3 422 316.5 L 423 316.5 L 423.5 319 L 424.5 316 L 425 356.5 L 424 356.5 L 423.5 348 L 423 360 L 419.5 362 L 417.5 362 Q 414.9 362.7 416 360 L 411.5 360 L 409 359 Q 410.1 356.3 407.5 357 L 402.5 355 Q 401.2 357.3 400 354.5 L 400 352 L 394 352 L 394 350 L 390 348 Q 391 351 388 350 Q 389.3 347 385.5 348 L 376.5 342 L 375 342.5 L 375.5 341 L 372.5 340 L 371 340.5 Q 371.8 337.9 368.5 339 L 366 338 Q 367.1 335.3 364.5 336 L 362.5 335 L 360.5 335 Q 354.3 335.7 352 332.5 L 354 331.5 L 350 329.5 L 348.5 327 L 345 326 Q 345.8 322.9 343 323.5 L 343 307.5 L 339.5 305 L 338.5 306 L 327.5 306 L 320.5 305 Q 311.6 306.4 306.5 304 L 304.5 305 L 299.5 303 L 296 303.5 Q 296.8 301.3 294.5 302 Q 293.3 304.3 292 301.5 Q 292.8 299.3 290.5 300 L 288 298.5 L 286.5 301 L 286 299 L 283 297.5 L 282.5 296 L 280.5 296 L 277 295 Q 278.1 292.3 275.5 293 L 273.5 293 L 261.5 290 L 258 287.5 Q 258.7 284.9 256 286 L 256 284 L 249.5 284 L 244 280.5 L 244.5 279 L 238.5 277 L 238 279 L 235 277.5 Q 235.7 274.9 233 276 L 233 273.5 L 231.5 270 L 230 270.5 L 235 260.5 Q 232.8 259.3 235.5 258 Q 236.7 260.3 238 257.5 L 240 254.5 Q 237.8 253.3 240.5 252 L 242 252 L 242 250 Q 244.7 251.1 244 248.5 L 253.5 240 L 254.5 241 L 257.5 238 L 259.5 238 L 262 237.5 L 261 235 L 263.5 234 Z " /><path fill="rgb(143,111,212)" stroke="rgb(143,111,212)" stroke-width="1" opacity="0.9686274509803922" d="M 73.5 237 L 74 241.5 L 73 241.5 L 73.5 237 Z " /><path fill="rgb(143,111,212)" stroke="rgb(143,111,212)" stroke-width="1" opacity="0.9686274509803922" d="M 73.5 247 L 74 258.5 L 73 258.5 L 73.5 247 Z " /><path fill="rgb(143,111,212)" stroke="rgb(143,111,212)" stroke-width="1" opacity="0.9686274509803922" d="M 229.5 275 L 228.5 277 L 229.5 275 Z " /><path fill="rgb(143,111,212)" stroke="rgb(143,111,212)" stroke-width="1" opacity="0.9686274509803922" d="M 221.5 290 L 222 292.5 L 221 292.5 L 221.5 290 Z " /><path fill="rgb(143,111,212)" stroke="rgb(143,111,212)" stroke-width="1" opacity="0.9686274509803922" d="M 291.5 307 L 295 307.5 L 291.5 308 L 291.5 307 Z " /><path fill="rgb(143,111,212)" stroke="rgb(143,111,212)" stroke-width="1" opacity="0.9686274509803922" d="M 296.5 307 L 299 307.5 L 296.5 308 L 296.5 307 Z " /><path fill="rgb(143,111,212)" stroke="rgb(143,111,212)" stroke-width="1" opacity="0.9686274509803922" d="M 303.5 307 L 306 307.5 L 303.5 308 L 303.5 307 Z " /><path fill="rgb(143,111,212)" stroke="rgb(143,111,212)" stroke-width="1" opacity="0.9686274509803922" d="M 300.5 340 L 299.5 342 L 300.5 340 Z " /><path fill="rgb(128,201,233)" stroke="rgb(128,201,233)" stroke-width="1" opacity="0.9411764705882353" d="M 75.5 1 L 77 1.5 L 74.5 3 L 75.5 1 Z " /><path fill="rgb(128,201,233)" stroke="rgb(128,201,233)" stroke-width="1" opacity="0.9411764705882353" d="M 78.5 2 L 82 3.5 L 80.5 3 Q 77.5 3.5 78.5 2 Z " /><path fill="rgb(128,201,233)" stroke="rgb(128,201,233)" stroke-width="1" opacity="0.9411764705882353" d="M 74.5 4 L 75 22.5 L 76 23.5 L 76 51.5 L 77 58 L 81 57 L 81.5 59 L 82.5 57 L 83 59 L 94.5 63 L 98 66.5 Q 97.2 69.1 100.5 68 L 107.5 72 L 116.5 74 L 122 77.5 L 124.5 81 L 135.5 85 L 137.5 85 L 139.5 86 L 141.5 86 L 144 87.5 L 144.5 89 L 147 85 L 149 85.5 L 147.5 89 L 146 88.5 L 147 94.5 L 148.5 96 L 149 93.5 L 148.5 92 L 154 89.5 L 153 87.5 L 153 85.5 L 152 76.5 L 153 76.5 L 156 91.5 L 156 129.5 L 154 130.5 L 153 128.5 L 154 124.5 L 152 125.5 L 149.5 130 L 146.5 123 L 146 128 Q 143 129 144 126 L 141.5 126 L 139 125 Q 140.1 122.3 137.5 123 L 127.5 120 L 125.5 118 L 122 118 Q 123 113.3 119.5 112 Q 115.3 112.8 114.5 110 L 112.5 111 L 110 110 Q 111.3 106.7 106.5 108 Q 105 104.5 103.5 107 L 100 106 Q 101.3 102.7 96.5 104 L 82.5 96 Q 80.8 98.7 79 94.5 L 77 91.5 L 76 77.5 L 75 76.5 L 75 27.5 L 74 26.5 L 74 24.5 L 74.5 4 Z " /><path fill="rgb(128,201,233)" stroke="rgb(128,201,233)" stroke-width="1" opacity="0.9411764705882353" d="M 89.5 5 L 93 7.5 L 91.5 7 L 89.5 5 Z " /><path fill="rgb(128,201,233)" stroke="rgb(128,201,233)" stroke-width="1" opacity="0.9411764705882353" d="M 94.5 7 L 103 11.5 L 101.5 12 L 95.5 9 L 94.5 7 Z " /><path fill="rgb(128,201,233)" stroke="rgb(128,201,233)" stroke-width="1" opacity="0.9411764705882353" d="M 106.5 14 Q 108.8 13.3 108 15.5 L 106.5 14 Z " /><path fill="rgb(128,201,233)" stroke="rgb(128,201,233)" stroke-width="1" opacity="0.9411764705882353" d="M 112.5 18 L 116 20.5 L 114.5 20 L 112.5 18 Z " /><path fill="rgb(128,201,233)" stroke="rgb(128,201,233)" stroke-width="1" opacity="0.9411764705882353" d="M 122.5 26 L 130 32.5 L 123.5 27 L 122.5 26 Z " /><path fill="rgb(128,201,233)" stroke="rgb(128,201,233)" stroke-width="1" opacity="0.9411764705882353" d="M 135.5 40 L 137.5 43 L 135.5 40 Z " /><path fill="rgb(128,201,233)" stroke="rgb(128,201,233)" stroke-width="1" opacity="0.9411764705882353" d="M 138.5 44 Q 145.2 51.3 148 62.5 L 147 62.5 L 138.5 44 Z " /><path fill="rgb(128,201,233)" stroke="rgb(128,201,233)" stroke-width="1" opacity="0.9411764705882353" d="M 148.5 64 L 149.5 66 Q 146.7 66.7 148.5 64 Z " /><path fill="rgb(128,201,233)" stroke="rgb(128,201,233)" stroke-width="1" opacity="0.9411764705882353" d="M 149.5 67 L 150.5 69 Q 147.7 69.7 149.5 67 Z " /><path fill="rgb(128,201,233)" stroke="rgb(128,201,233)" stroke-width="1" opacity="0.9411764705882353" d="M 150.5 70 L 151.5 72 Q 148.7 72.7 150.5 70 Z " /><path fill="rgb(128,201,233)" stroke="rgb(128,201,233)" stroke-width="1" opacity="0.9411764705882353" d="M 240.5 90 L 260 90.5 L 240.5 91 L 240.5 90 Z " /><path fill="rgb(128,201,233)" stroke="rgb(128,201,233)" stroke-width="1" opacity="0.9411764705882353" d="M 227.5 91 L 228 93 L 224 92.5 L 227.5 91 Z " /><path fill="rgb(128,201,233)" stroke="rgb(128,201,233)" stroke-width="1" opacity="0.9411764705882353" d="M 229.5 91 L 235 91.5 L 229.5 92 L 229.5 91 Z " /><path fill="rgb(128,201,233)" stroke="rgb(128,201,233)" stroke-width="1" opacity="0.9411764705882353" d="M 268.5 91 L 271 91.5 L 268.5 92 L 268.5 91 Z " /><path fill="rgb(128,201,233)" stroke="rgb(128,201,233)" stroke-width="1" opacity="0.9411764705882353" d="M 221.5 92 L 223 92.5 L 219.5 94 L 219.5 93 L 221.5 92 Z " /><path fill="rgb(128,201,233)" stroke="rgb(128,201,233)" stroke-width="1" opacity="0.9411764705882353" d="M 273.5 92 L 276 92.5 L 273.5 93 L 273.5 92 Z " /><path fill="rgb(128,201,233)" stroke="rgb(128,201,233)" stroke-width="1" opacity="0.9411764705882353" d="M 216.5 93 L 218 93.5 Q 217 96 212.5 95 L 212.5 94 L 216.5 93 Z " /><path fill="rgb(128,201,233)" stroke="rgb(128,201,233)" stroke-width="1" opacity="0.9411764705882353" d="M 279.5 93 L 283 93.5 L 279.5 94 L 279.5 93 Z " /><path fill="rgb(128,201,233)" stroke="rgb(128,201,233)" stroke-width="1" opacity="0.9411764705882353" d="M 207.5 95 L 211 95.5 L 199.5 99 L 200.5 97 L 207.5 95 Z " /><path fill="rgb(128,201,233)" stroke="rgb(128,201,233)" stroke-width="1" opacity="0.9411764705882353" d="M 300.5 98 L 303 98.5 L 300.5 99 L 300.5 98 Z " /><path fill="rgb(128,201,233)" stroke="rgb(128,201,233)" stroke-width="1" opacity="0.9411764705882353" d="M 191.5 100 L 195 100.5 L 187.5 105 L 183.5 105 L 181 107.5 Q 180.3 111.3 182.5 112 L 185 110.5 L 186.5 108 Q 191 107.5 191.5 111 L 198 111.5 L 196 112 L 196 114 L 201.5 114 Q 200.9 116.8 204 116 L 204.5 114 Q 207.4 118.3 213 119 Q 211.9 121.7 214.5 121 L 220 124 Q 218.7 127.3 223.5 126 L 231.5 130 L 233.5 129 L 237 131.5 L 235 132.5 L 237.5 134 L 238 132 Q 240.7 130.9 240 133.5 L 239.5 135 L 254 140 L 254.5 138 L 255.5 141 L 260 142 L 259 144.5 L 261 145.5 L 261.5 144 L 263.5 147 L 271.5 150 L 273 149.5 Q 272.3 151.8 274.5 151 L 281.5 154 L 286.5 154 L 288 155.5 L 289.5 160 L 291.5 160 L 294.5 159 L 295 161 L 300 162 Q 298.8 165 302.5 164 L 311.5 168 L 312.5 166 L 320 169.5 Q 319.3 173.3 321.5 174 L 325.5 175 L 327.5 174 L 332.5 177 L 336 177 L 339.5 182 L 359 190 L 360.5 194 L 367.5 194 L 368 196 L 359 196.5 L 360.5 198 L 367.5 197 L 374.5 198 L 376.5 198 Q 380.9 196.5 380 199.5 L 382.5 201 L 386.5 199 L 392.5 201 L 412 202.5 L 389.5 203 L 384.5 202 L 380.5 202 L 378.5 203 L 377.5 202 L 320.5 202 L 319.5 201 L 318 201.5 L 318.5 200 Q 315.2 201.1 316 198.5 L 308.5 192 L 303 189.5 L 303.5 188 L 297 186 Q 298.1 183.3 295.5 184 L 283.5 178 L 267.5 173 L 253.5 172 L 252.5 171 L 240.5 171 L 237.5 172 Q 228.5 171 224 173 Q 222.9 170.3 225.5 171 L 228.5 170 L 230.5 170 Q 235.9 171.9 235 168.5 L 235.5 167 L 224 166 L 225 161.5 L 223.5 161 L 220 162 Q 221.3 158.3 215.5 160 L 211.5 160 L 209.5 158 Q 206.9 158.8 208 155.5 L 206 154.5 L 205.5 156 L 203 154.5 Q 205.3 153.3 202.5 152 L 200.5 153 L 200.5 151 L 194.5 149 Q 193.3 151.3 192 148.5 L 191.5 146 L 190 147.5 Q 191.8 153.8 189 155.5 L 189 157.5 L 188.5 159 L 187 156.5 L 187 154.5 L 187 146.5 L 183.5 138 L 182 143.5 L 183 146.5 L 181.5 154 L 180 149.5 L 179 132.5 L 178 131.5 L 178 108.5 L 180.5 105 L 191.5 100 Z M 233 130 L 234 132 Q 235 129 233 130 Z " /><path fill="rgb(128,201,233)" stroke="rgb(128,201,233)" stroke-width="1" opacity="0.9411764705882353" d="M 307.5 100 L 312 102.5 L 310.5 102 Q 306.7 102.5 307.5 100 Z " /><path fill="rgb(128,201,233)" stroke="rgb(128,201,233)" stroke-width="1" opacity="0.9411764705882353" d="M 319.5 105 L 324 107.5 L 322.5 108 L 319.5 105 Z " /><path fill="rgb(128,201,233)" stroke="rgb(128,201,233)" stroke-width="1" opacity="0.9411764705882353" d="M 325.5 108 L 328 109.5 L 326.5 109 L 325.5 108 Z " /><path fill="rgb(128,201,233)" stroke="rgb(128,201,233)" stroke-width="1" opacity="0.9411764705882353" d="M 337.5 114 L 338.5 116 L 337.5 114 Z " /><path fill="rgb(128,201,233)" stroke="rgb(128,201,233)" stroke-width="1" opacity="0.9411764705882353" d="M 341.5 117 L 344 118.5 L 342.5 118 L 341.5 117 Z " /><path fill="rgb(128,201,233)" stroke="rgb(128,201,233)" stroke-width="1" opacity="0.9411764705882353" d="M 345.5 119 L 346.5 121 L 345.5 119 Z " /><path fill="rgb(128,201,233)" stroke="rgb(128,201,233)" stroke-width="1" opacity="0.9411764705882353" d="M 348.5 121 L 349.5 123 L 348.5 121 Z " /><path fill="rgb(128,201,233)" stroke="rgb(128,201,233)" stroke-width="1" opacity="0.9411764705882353" d="M 355.5 126 L 356.5 128 L 355.5 126 Z " /><path fill="rgb(128,201,233)" stroke="rgb(128,201,233)" stroke-width="1" opacity="0.9411764705882353" d="M 359.5 130 L 362 131.5 L 360.5 132 L 359.5 130 Z " /><path fill="rgb(128,201,233)" stroke="rgb(128,201,233)" stroke-width="1" opacity="0.9411764705882353" d="M 369.5 138 L 374.5 144 L 369.5 138 Z " /><path fill="rgb(128,201,233)" stroke="rgb(128,201,233)" stroke-width="1" opacity="0.9411764705882353" d="M 379.5 149 L 380.5 151 L 379.5 149 Z " /><path fill="rgb(128,201,233)" stroke="rgb(128,201,233)" stroke-width="1" opacity="0.9411764705882353" d="M 384.5 154 L 388 158.5 L 384 155.5 L 384.5 154 Z " /><path fill="rgb(128,201,233)" stroke="rgb(128,201,233)" stroke-width="1" opacity="0.9411764705882353" d="M 388.5 160 L 391.5 164 L 388.5 160 Z " /><path fill="rgb(128,201,233)" stroke="rgb(128,201,233)" stroke-width="1" opacity="0.9411764705882353" d="M 392.5 165 L 396 169.5 L 393 167.5 L 392.5 165 Z " /><path fill="rgb(128,201,233)" stroke="rgb(128,201,233)" stroke-width="1" opacity="0.9411764705882353" d="M 396.5 171 L 400 175.5 L 397 173.5 L 396.5 171 Z " /><path fill="rgb(128,201,233)" stroke="rgb(128,201,233)" stroke-width="1" opacity="0.9411764705882353" d="M 400.5 177 L 408 190.5 L 411 200.5 L 410 200.5 L 407 190.5 L 400 179.5 L 400.5 177 Z " /><path fill="rgb(128,201,233)" stroke="rgb(128,201,233)" stroke-width="1" opacity="0.9411764705882353" d="M 371.5 225 L 373.5 225 L 394.5 226 Q 404.7 229.3 411 236.5 Q 410.3 238.8 412.5 238 L 419 246.5 L 419 251.5 L 421 260 L 418 259.5 L 418 257.5 L 416.5 255 L 413.5 256 L 410.5 252 Q 405.2 252.7 404.5 249 L 400 249 L 398.5 246 L 396 246 L 394 242 L 389.5 242 L 385.5 239 L 381.5 241 L 375 238.5 L 378 236.5 L 376.5 236 L 374 237 L 372.5 234 L 368.5 234 Q 369.3 230.8 364 232 L 362 228 L 366 227.5 L 360.5 227 Q 359.3 229.3 358 226.5 L 370.5 226 L 371.5 225 Z " /><path fill="rgb(159,43,196)" stroke="rgb(159,43,196)" stroke-width="1" opacity="0.9921568627450981" d="M 79.5 234 L 83.5 238 L 84.5 237 L 94.5 244 L 98.5 244 L 104.5 248 L 108 248 Q 106.9 250.7 109.5 250 L 123.5 257 L 126.5 256 L 128 259 L 142.5 267 L 147 268 L 148 272 L 150 272 Q 148.3 266.8 152 268 L 152.5 272 L 154.5 272 Q 157.5 271.1 156 275.5 L 158 286.5 L 164 301.5 L 163.5 303 Q 165.8 302.3 165 304.5 L 172 317.5 L 187.5 336 L 188.5 335 L 192.5 339 L 199 343.5 L 197.5 344 L 196 343.5 Q 194.7 348.1 200.5 346 L 200.5 344 L 211 350.5 L 209.5 350 L 206.5 349 L 205 349.5 L 204.5 348 L 202.5 348 L 201 348.5 L 203.5 352 L 195 348.5 L 192.5 343 L 192 345 L 188.5 344 L 187 344.5 L 186 337.5 L 187 336.5 L 184 333.5 L 181.5 330 L 181 333 L 179 333.5 L 179.5 335 L 178 334.5 Q 178.8 336.8 176.5 336 L 173.5 337 L 172 335.5 L 172 332 L 170 332 L 168 328 L 161.5 328 L 163.5 332 L 160 330.5 Q 161.8 323.8 158.5 322 L 147 322.5 L 149 325.5 L 144 326 L 144 324 L 138 324 Q 139 321 136 322 L 136 319 L 138 319 L 138 314 L 136 314 L 134 310 L 128 310 Q 129.2 313.7 124 312 L 122 308 L 113.5 308 L 112 304 L 106 304 Q 107 301 104 302 L 104 298 Q 101 299 102 296 L 98 296 Q 99 293 96 294 Q 97.2 297.7 92 296 L 92 294 L 88 294 Q 89 291 86 292 L 86 289 L 84.5 289 L 79.5 287 L 79 288.5 L 80 290.5 L 78.5 294 L 77 290.5 L 76 268.5 L 75 267.5 L 76 264.5 L 75 260.5 L 76 258.5 L 76 256.5 L 76.5 239 L 78 239.5 Q 77 235 79.5 234 Z M 161 318 Q 159 321 162 320 L 161 318 Z M 168 318 L 167 320 L 170 320 L 168 318 Z M 145 320 Q 143 323 146 322 L 145 320 Z M 178 327 L 176 329 L 177 332 L 178 332 L 180 329 L 178 327 Z M 193 340 L 194 343 L 196 343 L 193 340 Z " /><path fill="rgb(159,43,196)" stroke="rgb(159,43,196)" stroke-width="1" opacity="0.9921568627450981" d="M 78 295 L 80 295.5 L 80 297.5 L 79.5 299 L 78 295 Z " /><path fill="rgb(159,43,196)" stroke="rgb(159,43,196)" stroke-width="1" opacity="0.9921568627450981" d="M 79.5 300 L 80 302.5 L 79 302.5 L 79.5 300 Z " /><path fill="rgb(159,43,196)" stroke="rgb(159,43,196)" stroke-width="1" opacity="0.9921568627450981" d="M 222.5 300 Q 225 301.2 224 305 Q 219.9 306.2 222.5 300 Z " /><path fill="rgb(159,43,196)" stroke="rgb(159,43,196)" stroke-width="1" opacity="0.9921568627450981" d="M 80.5 304 L 81 306.5 L 80 306.5 L 80.5 304 Z " /><path fill="rgb(159,43,196)" stroke="rgb(159,43,196)" stroke-width="1" opacity="0.9921568627450981" d="M 81.5 308 L 82 310.5 L 81 310.5 L 81.5 308 Z " /><path fill="rgb(159,43,196)" stroke="rgb(159,43,196)" stroke-width="1" opacity="0.9921568627450981" d="M 152 324 L 155 325.5 L 152 326 L 152 324 Z " /><path fill="rgb(159,43,196)" stroke="rgb(159,43,196)" stroke-width="1" opacity="0.9921568627450981" d="M 168.5 332 L 171 336 L 168 334.5 L 168.5 332 Z " /><path fill="rgb(159,43,196)" stroke="rgb(159,43,196)" stroke-width="1" opacity="0.9921568627450981" d="M 183.5 335 L 184 337 L 182 336.5 L 183.5 335 Z " /><path fill="rgb(159,43,196)" stroke="rgb(159,43,196)" stroke-width="1" opacity="0.9921568627450981" d="M 304.5 341 L 305.5 344 L 308 343 L 307 347 L 309.5 348 L 312 346.5 L 311.5 348 L 317 349 L 317.5 347 L 318 353.5 L 317 358.5 L 318 359.5 L 318 417.5 L 316 416.5 L 317 415.5 L 317 400.5 L 316 400.5 L 315.5 403 L 314.5 400 L 314 404 Q 311.3 402.9 312 405.5 L 311 405.5 L 312 401.5 L 309 400.5 L 308 384 L 306 384.5 L 306 400.5 L 304 401 Q 302.1 398.2 303 392 L 300 392 Q 301.3 389 297.5 390 L 297 392.5 L 300 395.5 L 302 399.5 L 299.5 398 L 298 398 L 298 394 L 296 394 L 296 390 L 291.5 390 L 291.5 392 L 288 392 L 286 388 L 282 388 L 280 384 L 273.5 384 L 275.5 388 L 272 388 L 272 380.5 Q 269.3 381.1 270 378 Q 264.7 379.3 265.5 376 L 260 376 L 259.5 374 L 254 374 L 254 372 L 250 372 Q 251.1 369.3 248.5 370 L 240.5 368 L 236.5 368 L 234.5 367 Q 233.3 369.3 232 366.5 L 233.5 364 L 235.5 364 Q 241.8 367.9 253 366 Q 254.4 362 247.5 364 L 244.5 363 L 240 362.5 L 242 361.5 L 233.5 361 L 232 361.5 L 231 358 L 226.5 358 L 223.5 356 L 217 355 Q 216 358.8 218.5 360 L 220.5 359 L 220.5 361 L 225.5 362 L 229.5 361 L 230.5 363 L 222.5 365 L 219 363 L 218.5 361 L 216.5 362 L 211.5 355 L 210 355.5 L 211 353 L 213.5 352 L 215.5 352 L 222.5 355 L 237.5 358 L 261.5 358 L 277.5 355 L 299.5 344 L 301 344.5 Q 300.2 341.5 304 343 L 304.5 341 Z M 215 356 L 216 358 Q 217 355 215 356 Z M 316 395 L 315 400 L 316 400 L 316 395 Z " /><path fill="rgb(159,43,196)" stroke="rgb(159,43,196)" stroke-width="1" opacity="0.9921568627450981" d="M 189.5 346 Q 191.8 345.3 191 347.5 L 189.5 346 Z " /><path fill="rgb(159,43,196)" stroke="rgb(159,43,196)" stroke-width="1" opacity="0.9921568627450981" d="M 343.5 354 L 346 367 Q 349.7 368.5 349 365.5 L 353.5 369 L 354.5 368 L 364 370 L 364 372 L 368 372 Q 366.8 375 370.5 374 L 380 379.5 Q 379.3 381.8 381.5 381 L 391.5 385 L 392.5 384 L 395.5 387 L 413.5 396 L 416 396 L 416.5 394 L 418 398 Q 420.7 399.1 420 396.5 L 421 396.5 L 421.5 399 L 422.5 397 L 423 463.5 L 422 463.5 L 419.5 441 L 418 444.5 Q 419.4 454.4 416.5 460 L 416 456.5 L 416 454.5 L 415 448 Q 409.6 449.5 408 446.5 L 410 446 L 410 444 L 406 444 L 404 440 L 401.5 440 L 398.5 444 L 398 442 L 394 442 Q 395 439 392 440 Q 393 443 390 442 L 392 438 L 390 438 L 390 434 Q 387 435 388 432 L 384 432 L 384 434 L 378 434 L 378 430 L 376 430 L 376 426 Q 373 427 374 424 L 362.5 424 L 362 422 L 358 422 L 356 418 L 353.5 418 L 350.5 419 Q 347.9 418.2 349 421.5 L 347.5 426 L 345 405.5 L 346 402 L 344 401.5 L 344 380.5 L 343 379.5 L 343.5 354 Z M 351 407 L 350 417 L 352 416 Q 353 409 351 407 Z " /><path fill="rgb(159,43,196)" stroke="rgb(159,43,196)" stroke-width="1" opacity="0.9921568627450981" d="M 244 372 Q 249.3 370.8 248.5 374 L 252.5 374 L 256 376.5 Q 256.7 379.1 254 378 L 254 376 L 248 376 L 248 374 Q 242.8 375.7 244 372 Z " /><path fill="rgb(159,43,196)" stroke="rgb(159,43,196)" stroke-width="1" opacity="0.9921568627450981" d="M 264 380 L 268 382.5 Q 268.7 385.1 266 384 L 264 380 Z " /><path fill="rgb(159,43,196)" stroke="rgb(159,43,196)" stroke-width="1" opacity="0.9921568627450981" d="M 317.5 422 L 318 424.5 L 315.5 426 L 315.5 425 Q 318.4 425.7 317.5 422 Z " /><path fill="rgb(159,43,196)" stroke="rgb(159,43,196)" stroke-width="1" opacity="0.9921568627450981" d="M 350.5 429 L 352 431.5 L 352 433.5 Q 352.8 436.1 349.5 435 L 349.5 434 L 351 433.5 L 350 430.5 L 350.5 429 Z " /><path fill="rgb(159,43,196)" stroke="rgb(159,43,196)" stroke-width="1" opacity="0.9921568627450981" d="M 366 432 L 375.5 432 L 376 435 L 378.5 435 L 378.5 436 Q 374.3 436.8 373.5 434 L 366 434 L 366 432 Z " /><path fill="rgb(159,43,196)" stroke="rgb(159,43,196)" stroke-width="1" opacity="0.9921568627450981" d="M 353.5 444 L 355 446.5 L 354 446.5 L 353.5 444 Z " /><path fill="rgb(159,43,196)" stroke="rgb(159,43,196)" stroke-width="1" opacity="0.9921568627450981" d="M 394.5 445 L 396 447.5 L 394 446.5 L 394.5 445 Z " /><path fill="rgb(159,43,196)" stroke="rgb(159,43,196)" stroke-width="1" opacity="0.9921568627450981" d="M 357.5 449 L 356.5 451 L 357.5 449 Z " /><path fill="rgb(147,85,205)" stroke="rgb(147,85,205)" stroke-width="1" opacity="0.9490196078431372" d="M 75.5 187 Q 74.9 196.9 78 202 Q 81.7 203.5 81 200.5 L 83 201.5 Q 82.3 203.8 84.5 203 L 91.5 208 L 96 208 Q 94.5 211.8 97.5 211 L 103.5 214 L 104.5 212 Q 105.9 214.6 110.5 214 L 114.5 218 L 119.5 220 L 120.5 218 L 121.5 220 Q 118.9 219.3 120 222 L 123.5 221 L 129.5 225 Q 131 222.5 132.5 226 L 139 229 L 140.5 232 L 144.5 231 L 148 233 L 148.5 230 L 150 235 L 154.5 237 L 156 236.5 L 156 271.5 L 154.5 272 L 152 271.5 Q 153.3 266.7 150 268 Q 151.7 273.2 148 272 L 147 268 L 142.5 267 L 128 259 L 126.5 256 L 123.5 257 L 115.5 252 L 108 250 Q 109.3 246.7 104.5 248 L 98.5 244 L 92.5 243 Q 90.2 238.3 84.5 237 L 83.5 238 L 79.5 234 L 78 235.5 L 77.5 240 L 76 238.5 L 76 225.5 L 75 224.5 L 75.5 187 Z " /><path fill="rgb(147,85,205)" stroke="rgb(147,85,205)" stroke-width="1" opacity="0.9490196078431372" d="M 73.5 220 L 74 222.5 L 73 222.5 L 73.5 220 Z " /><path fill="rgb(147,85,205)" stroke="rgb(147,85,205)" stroke-width="1" opacity="0.9490196078431372" d="M 231.5 270 L 233 273.5 L 233 276 Q 235.7 274.9 235 277.5 L 238 279 L 238.5 277 L 245 279.5 Q 242.7 280.8 245.5 282 Q 249 285.2 256 284 L 256 286 Q 258.7 284.9 258 287.5 L 261.5 290 L 273.5 293 L 275.5 293 L 278.5 295 L 281.5 297 L 283 296.5 L 284.5 299 Q 286.8 298.3 286 300.5 L 288 299.5 L 288.5 298 L 292 300 L 293.5 303 L 296 302 L 296.5 304 L 300.5 304 L 305.5 305 L 308.5 304 L 309.5 305 L 321 305.5 L 258.5 306 L 257.5 305 L 224 305 Q 225 300.8 222 299.5 L 222 295.5 L 226 278.5 L 228 274 L 230 273.5 Q 227.3 271.8 231.5 270 Z " /><path fill="rgb(147,85,205)" stroke="rgb(147,85,205)" stroke-width="1" opacity="0.9490196078431372" d="M 343 324 L 345 324 Q 343.9 326.7 346.5 326 L 350 328.5 L 351.5 331 Q 352.8 328.8 354 331.5 L 352 332.5 L 361.5 336 L 363.5 335 L 366 336 Q 364.9 338.7 367.5 338 L 371 339 L 371.5 341 L 373.5 341 L 375.5 341 L 385.5 348 L 388 348 Q 387 351 390 350 Q 389 347 392 348 L 394 352 L 400 352 L 400 354.5 L 403.5 356 L 409 357 Q 407.9 359.7 410.5 359 L 416 360 Q 414.9 362.7 417.5 362 L 421.5 360 L 423 360.5 L 423 396.5 L 421.5 399 L 420.5 396 L 420 398 Q 417 399.3 418 395.5 L 416 394.5 Q 416.8 397.1 413.5 396 L 395.5 387 L 392.5 384 L 390.5 384 L 380 381 L 378.5 378 Q 374 378.5 373.5 375 L 368 374 L 368 372 Q 362.7 373.2 363.5 370 L 360.5 370 L 354.5 368 L 353.5 369 L 349 365.5 Q 349.7 368.5 346 367 L 343 353.5 L 343 324 Z " /><path fill="rgb(147,85,205)" stroke="rgb(147,85,205)" stroke-width="1" opacity="0.9490196078431372" d="M 317.5 329 L 318 346.5 L 317 349 Q 312.5 349.8 310.5 347 L 308.5 347 Q 306.3 347.8 307 345.5 L 308 343 L 305.5 344 L 305 339 L 313 334 L 314.5 331 L 317.5 329 Z " /><path fill="rgb(138,141,218)" stroke="rgb(138,141,218)" stroke-width="1" opacity="0.9372549019607843" d="M 74.5 88 Q 73.6 101.9 77 111.5 L 77 113.5 L 77 115 L 80 115 Q 78.5 118.7 81.5 118 Q 83 121.5 84.5 119 L 87 119 Q 85.9 121.7 88.5 121 L 91.5 123 L 93.5 123 L 104 126 Q 102.8 129 106.5 128 L 112.5 133 L 123.5 136 L 128 139.5 Q 127.3 141.8 129.5 141 L 132.5 140 L 141 145.5 L 140.5 147 L 145.5 149 L 148 148.5 Q 147.3 145.9 150 147 L 152.5 152 Q 154.8 152.8 154 150.5 L 155.5 146 L 156.5 148 L 157.5 129 L 158 172.5 L 157 174.5 L 157 178.5 L 156.5 191 L 155 190.5 L 153 193.5 L 152 193.5 Q 152.8 190.9 149.5 192 L 148 192.5 L 149 190.5 L 146.5 187 L 146 190 L 137.5 186 L 134.5 186 L 128.5 182 L 126.5 182 Q 124.5 179.2 120 180 Q 121.1 177.3 118.5 178 L 114.5 176 L 113 176.5 L 112.5 175 L 111.5 176 L 107.5 172 L 104.5 172 Q 105.5 169 100.5 170 L 97 168.5 L 99 167.5 L 96.5 166 L 94.5 166 L 90 165 L 88.5 162 L 80 160 L 76.5 152 L 75.5 155 L 75 128.5 L 73 122.5 L 74 121.5 L 74.5 88 Z M 84 158 Q 83 161 86 160 Q 87 157 84 158 Z " /><path fill="rgb(138,141,218)" stroke="rgb(138,141,218)" stroke-width="1" opacity="0.9372549019607843" d="M 73.5 130 L 74 134.5 L 73 134.5 L 73.5 130 Z " /><path fill="rgb(138,141,218)" stroke="rgb(138,141,218)" stroke-width="1" opacity="0.9372549019607843" d="M 177.5 145 Q 180.4 149.2 179 157.5 L 182.5 166 L 183.5 164 L 184.5 167 L 187.5 166 L 190 166.5 Q 188.2 172.2 194.5 170 L 197 171 L 197 173 L 200 173 Q 198.8 176 202.5 175 L 208.5 177 L 210.5 176 L 210.5 177 L 209 177.5 L 211.5 178 Q 214.2 175.2 220.5 176 L 224.5 176 L 228 175.5 L 225 174.5 L 227.5 174 L 231 175.5 L 220.5 178 L 219 177.5 L 218.5 179 L 217 178.5 Q 217.8 180.8 215.5 180 L 191 193.5 Q 193.3 194.8 190.5 196 Q 187.2 194.9 188 197.5 L 185 198.5 Q 185.5 202.5 182.5 203 L 182.5 201 Q 180.3 200.3 181 202.5 L 180 202.5 L 179.5 201 L 178 201.5 L 179 199.5 L 177 191.5 L 177.5 145 Z " /><path fill="rgb(138,141,218)" stroke="rgb(138,141,218)" stroke-width="1" opacity="0.9372549019607843" d="M 73.5 149 L 74 151.5 L 73 151.5 L 73.5 149 Z " /><path fill="rgb(138,141,218)" stroke="rgb(138,141,218)" stroke-width="1" opacity="0.9372549019607843" d="M 73.5 166 L 74 180.5 L 73 180.5 L 73.5 166 Z " /><path fill="rgb(138,141,218)" stroke="rgb(138,141,218)" stroke-width="1" opacity="0.9372549019607843" d="M 238.5 172 L 244 173.5 L 238 174 L 238.5 172 Z " /><path fill="rgb(138,141,218)" stroke="rgb(138,141,218)" stroke-width="1" opacity="0.9372549019607843" d="M 231.5 173 L 236 174.5 L 232.5 175 L 231.5 173 Z " /><path fill="rgb(138,141,218)" stroke="rgb(138,141,218)" stroke-width="1" opacity="0.9372549019607843" d="M 73.5 203 L 74 210.5 L 73 210.5 L 73.5 203 Z " /><path fill="rgb(138,141,218)" stroke="rgb(138,141,218)" stroke-width="1" opacity="0.9372549019607843" d="M 181.5 204 L 180.5 206 L 181.5 204 Z " /><path fill="rgb(138,141,218)" stroke="rgb(138,141,218)" stroke-width="1" opacity="0.9372549019607843" d="M 302.5 223 L 304.5 224 L 306.5 223 L 308.5 224 L 309.5 223 L 335.5 223 L 335.5 224 L 318 224.5 L 322 225.5 L 318.5 226 L 316.5 226 L 310 226.5 L 317 227 Q 318.1 229.7 315.5 229 L 315.5 230 L 319.5 232 L 321.5 231 L 323.5 233 L 332 235.5 L 331.5 237 L 337.5 240 L 340.5 240 L 353.5 248 L 357 248 Q 355.8 251 359.5 250 L 363.5 253 L 366 251.5 L 367 256 L 376.5 256 L 380 258.5 L 381.5 262 L 391.5 266 L 392.5 264 L 394.5 267 L 397.5 267 Q 399.5 270.2 404 270 Q 402.9 272.7 405.5 272 L 411.5 276 Q 416.8 274.8 418 277.5 Q 417.3 280.1 420 279 L 420.5 276 L 421.5 280 L 422.5 272 L 423.5 278 L 424.5 269 L 425 315.5 L 423.5 319 L 422.5 316 L 422 320 L 418 318.5 L 416.5 316 L 415 316.5 L 416 319.5 L 413.5 318 L 403.5 315 L 387.5 306 L 384 306 Q 385.3 303 381.5 304 L 376 300.5 L 376.5 299 L 370.5 296 L 367 296 L 366.5 298 L 361.5 292 L 360 292.5 Q 360.8 288.8 358.5 288 Q 353.8 289.2 352.5 287 L 349.5 288 L 340 282.5 L 340.5 281 L 336.5 279 L 333.5 280 L 320 274.5 Q 321.1 271.2 318.5 272 L 317.5 273 L 314.5 270 L 311 268.5 L 313 267.5 L 304.5 264 L 300.5 266 L 288 258.5 L 286.5 256 L 284.5 256 Q 277.8 256.7 276.5 252 L 271.5 253 L 268.5 250 L 260.5 246 L 259 246.5 L 259.5 245 L 256 246 L 254 239 L 260.5 235 L 261.5 237 L 262.5 234 L 264 234.5 L 265.5 232 L 268.5 231 L 270 231.5 Q 269.3 229.3 271.5 230 L 280.5 226 L 285.5 226 L 291.5 224 L 301.5 224 L 302.5 223 Z M 258 238 L 256 241 Q 261 243 260 239 L 262 239 L 260 238 L 258 238 Z " /><path fill="rgb(138,141,218)" stroke="rgb(138,141,218)" stroke-width="1" opacity="0.9372549019607843" d="M 251.5 241 L 249.5 244 L 251.5 241 Z " /><path fill="rgb(138,141,218)" stroke="rgb(138,141,218)" stroke-width="1" opacity="0.9372549019607843" d="M 73.5 242 L 74 246.5 L 73 246.5 L 73.5 242 Z " /><path fill="rgb(138,141,218)" stroke="rgb(138,141,218)" stroke-width="1" opacity="0.9372549019607843" d="M 253.5 242 L 251.5 245 L 253.5 242 Z " /><path fill="rgb(138,141,218)" stroke="rgb(138,141,218)" stroke-width="1" opacity="0.9372549019607843" d="M 254.5 245 L 254.5 248 Q 251.5 246.5 254.5 245 Z " /><path fill="rgb(138,141,218)" stroke="rgb(138,141,218)" stroke-width="1" opacity="0.9372549019607843" d="M 244.5 247 L 243.5 249 L 244.5 247 Z " /><path fill="rgb(138,141,218)" stroke="rgb(138,141,218)" stroke-width="1" opacity="0.9372549019607843" d="M 238.5 254 L 237.5 256 L 238.5 254 Z " /><path fill="rgb(182,44,187)" stroke="rgb(182,44,187)" stroke-width="1" opacity="0.996078431372549" d="M 87.5 324 L 88 327.5 L 87 327.5 L 87.5 324 Z " /><path fill="rgb(182,44,187)" stroke="rgb(182,44,187)" stroke-width="1" opacity="0.996078431372549" d="M 92.5 329 L 94.5 333 Q 98.3 332.3 99 334.5 Q 98.2 337.5 102 336 L 102 339.5 L 104.5 340 Q 108.8 340.8 109.5 338 L 112 339.5 L 110 340.5 L 112 341 L 113.5 344 Q 118.2 342.8 119.5 345 L 123.5 344 L 128 347.5 L 128 352 L 139.5 352 L 141 355 L 143.5 356 L 145.5 356 L 148.5 356 L 152 358 L 152 360 L 154 360 L 156 364 L 161.5 364 Q 163 367.3 168 366 L 168.5 368 L 176 368 L 176 372 L 177.5 372 L 179.5 372 L 182 374.5 L 182 376 L 187.5 376 Q 186.5 379 191.5 378 Q 193.2 383.2 200 382 L 200.5 384 L 208 384 L 208 386.5 Q 209.3 389.3 214.5 388 L 216.5 390 L 224 390 Q 222.9 392.7 225.5 392 L 229.5 397 L 232 396 Q 229.8 401.6 235.5 400 L 240 403 L 240 400 L 246 400 Q 245 403 248 402 L 248 406 Q 251 405 250 408 L 254 408 Q 252.9 410.7 255.5 410 L 259.5 413 L 272 414 L 272 420 L 284.5 420 L 288 421 L 289.5 427 L 293.5 426 L 296 427.5 Q 295.2 424.5 299 426 Q 297.3 430.1 301.5 429 L 302.5 431 Q 297.9 430.4 296.5 433 L 294.5 433 L 263.5 439 L 232.5 439 L 212.5 435 L 209.5 436 L 207.5 434 L 193.5 431 L 177.5 423 L 172 422 L 171.5 420 Q 170 422.5 168.5 419 L 159 414.5 Q 161.3 413.3 158.5 412 Q 157 414.5 155.5 411 L 133 396 Q 134.5 392.3 131.5 393 L 128 390.5 L 124.5 386 Q 122.3 386.8 123 384.5 L 118.5 379 Q 116.3 379.8 117 377.5 L 101 356.5 L 100 352.5 L 93 341.5 L 89 330.5 Q 90.8 332.1 92.5 329 Z M 98 336 Q 96 339 99 338 L 98 336 Z M 94 338 L 95 341 L 96 339 L 94 338 Z M 107 354 L 106 358 L 110 357 Q 112 353 107 354 Z " /><path fill="rgb(182,44,187)" stroke="rgb(182,44,187)" stroke-width="1" opacity="0.996078431372549" d="M 304.5 422 L 307 423.5 L 303.5 426 L 303 423.5 L 304.5 422 Z " /><path fill="rgb(182,44,187)" stroke="rgb(182,44,187)" stroke-width="1" opacity="0.996078431372549" d="M 298.5 424 L 301 424.5 L 298.5 425 L 298.5 424 Z " /><path fill="rgb(182,44,187)" stroke="rgb(182,44,187)" stroke-width="1" opacity="0.996078431372549" d="M 300 426 Q 303 425 302 428 Q 299 429 300 426 Z " /><path fill="rgb(182,44,187)" stroke="rgb(182,44,187)" stroke-width="1" opacity="0.996078431372549" d="M 363.5 457 L 367 457.5 L 363.5 458 L 363.5 457 Z " /><path fill="rgb(182,44,187)" stroke="rgb(182,44,187)" stroke-width="1" opacity="0.996078431372549" d="M 363.5 459 L 366 459.5 L 363.5 460 L 363.5 459 Z " /><path fill="rgb(182,44,187)" stroke="rgb(182,44,187)" stroke-width="1" opacity="0.996078431372549" d="M 367.5 463 L 371 465 L 371 467 Q 374.8 465.5 374 468.5 L 375 468.5 L 375.5 467 L 377 468.5 Q 372.8 470.8 374.5 473 L 372 471.5 L 372.5 470 L 368 467.5 L 369 465.5 L 366 464.5 L 367.5 463 Z " /><path fill="rgb(182,44,187)" stroke="rgb(182,44,187)" stroke-width="1" opacity="0.996078431372549" d="M 380.5 468 L 382 471 L 385 472.5 Q 384.5 475.5 391.5 474 Q 393.9 477.7 400 477 Q 401.5 480.8 398.5 480 L 397.5 482 Q 399.8 481.3 399 483.5 L 401.5 484 L 408.5 484 L 417 488.5 L 416 490.5 L 417.5 490 L 419 489.5 L 418.5 488 L 420 488 L 420 493 L 421.5 493 L 423 492.5 L 423 495 L 416.5 495 Q 413.8 493.8 416 492.5 L 414.5 490 L 411 490.5 L 412.5 493 L 409.5 493 L 402.5 489 Q 401 491.5 399.5 488 L 395.5 487 L 387 481.5 L 389 480.5 L 382 479 L 381 475.5 L 381.5 474 Q 379.3 474.8 380 472.5 L 379 472.5 L 377.5 475 Q 374.8 473.7 377 472.5 L 378 469 L 380.5 468 Z M 396 482 L 397 484 Q 398 481 396 482 Z M 400 486 L 400 488 Q 402 491 403 488 Q 404 484 400 486 Z " /><path fill="rgb(182,44,187)" stroke="rgb(182,44,187)" stroke-width="1" opacity="0.996078431372549" d="M 403.5 479 L 411 480 L 411 482 L 416 482 L 416 484 L 410 484 L 409.5 482 L 401.5 482 L 401 480 L 403.5 479 Z " /><path fill="rgb(182,44,187)" stroke="rgb(182,44,187)" stroke-width="1" opacity="0.996078431372549" d="M 422.5 481 L 423 484.5 L 422 484.5 L 422.5 481 Z " /><path fill="rgb(170,42,192)" stroke="rgb(170,42,192)" stroke-width="1" opacity="0.996078431372549" d="M 79.5 287 L 86 289 L 86 292 Q 89 291 88 294 L 91.5 294 Q 90.7 297.3 96 296 Q 95 293 98 294 L 98 296 L 102 296 Q 101 299 104 298 L 104 302 Q 107 301 106 304 L 112 304 L 112 306.5 L 113.5 308 L 122 308 L 124 312 L 128 312 L 128 310 L 134 310 L 134 312 L 138 314 L 138 319 Q 134.7 317.9 136 322 Q 139.1 321.3 138.5 324 L 144 324 L 144 326 L 148.5 326 L 148 324.5 L 147 322.5 L 158.5 322 L 160 323.5 Q 158.3 330.3 161.5 332 L 164 331.5 L 161.5 328 L 168 328 L 168 330 L 172 332 L 172 335.5 L 173.5 337 L 176.5 336 Q 178.8 336.8 178 334.5 L 181 333 L 181.5 330 L 185.5 335 Q 186.7 332.8 188 335.5 Q 185.3 336.3 186 340.5 L 187.5 345 L 189.5 345 Q 192.8 346.1 192 343.5 L 192 341.5 L 192.5 340 L 201 345.5 L 196 346 Q 197.7 341.9 193.5 343 L 194 344.5 L 196.5 350 Q 201.8 349.2 203.5 352 L 201.5 348 L 203.5 347 L 205.5 350 L 207.5 350 L 210.5 351 L 212.5 351 L 215 352.5 L 212.5 353 Q 210.3 352.3 211 354.5 L 216.5 362 L 218.5 361 L 219 363 L 223.5 365 L 231 362.5 Q 230.3 360.3 226.5 361 L 222.5 362 L 217.5 359 L 216 359.5 L 217 355.5 L 216.5 354 L 226.5 358 L 231 358 L 232.5 362 L 233.5 361 L 241.5 361 L 241.5 362 L 240 362.5 L 245.5 364 L 247.5 364 Q 254.4 362 253 366 Q 241.8 367.9 235.5 364 L 232 365.5 L 233.5 368 L 235.5 368 L 237.5 369 L 240.5 368 L 250 370 L 250 372 Q 255.2 370.3 254 374 L 259.5 374 L 260 376 L 265.5 376 Q 264.7 379.3 270 378 Q 269.3 381.1 272 380.5 L 272 388 L 275.5 388 L 273.5 384 L 280 384 L 282 388 L 286 388 L 288 392 L 291.5 392 L 291.5 390 L 296 390 L 296 394 L 297.5 394 L 297.5 390 Q 301.3 389 300 392 L 303 392 L 303 398.5 L 304 401 L 306 400.5 L 306 384.5 L 308 384 L 308 394.5 L 309.5 401 Q 310.8 398.8 312 401.5 L 311 405.5 L 312 405.5 Q 311.3 402.9 314 404 L 314 400.5 L 315.5 395 Q 318.6 402.9 317 415.5 Q 314.5 417 318 418.5 L 317 425 Q 314.3 423.9 315 426.5 L 313.5 426 L 311 426.5 L 311.5 428 L 309.5 429 Q 308 426.5 306.5 430 L 304.5 429 L 303.5 431 Q 302.4 428.3 299 429 Q 300.5 424.5 296 426 L 295.5 428 Q 294.8 425.3 290.5 426 L 289 426.5 L 288 421 Q 282.4 418.7 272 420 L 272 414 L 264.5 414 L 259.5 413 L 254 410 L 254 408 L 250 408 Q 251 405 248 406 L 248 402 Q 245 403 246 400 L 240 400 Q 241.5 403.7 238.5 403 Q 237.1 399 232 400 L 232 396 L 230.5 396 Q 228.8 398.8 227 394.5 L 225.5 392 L 224 392 L 223.5 390 L 216.5 390 L 214.5 388 Q 209.3 389.3 208 386.5 L 208 384 L 200.5 384 Q 201.5 380.8 195.5 382 Q 194 377 188 378 L 188 376 L 182.5 376 L 182 374.5 L 179.5 372 L 177.5 372 L 176 372 L 176 368 L 168.5 368 Q 169.5 364.8 163.5 366 Q 161.8 362.5 156 364 L 156 362 L 154 362 L 154 360 L 152 360 Q 153.1 357.3 150.5 358 L 144.5 355 L 142.5 355 Q 140.3 355.8 141 353.5 L 139.5 352 L 128 352 Q 129.3 347.4 126.5 346 Q 125.1 343.4 120.5 344 L 118.5 344 Q 113.3 345.3 112 342.5 Q 112.8 340.3 110.5 341 L 110.5 340 L 112 339.5 L 109.5 338 Q 108.8 340.8 104.5 340 L 102 339.5 L 102 336 Q 98.2 337.5 99 334.5 L 93 331.5 L 92.5 329 L 89.5 333 L 89 331.5 L 89.5 330 L 87 328.5 L 88 324.5 L 87 324.5 L 86.5 326 L 79 299.5 L 80 297.5 L 79.5 295 L 78 294.5 L 80 289.5 L 79.5 287 Z M 152 324 L 152 326 L 155 326 L 152 324 Z M 169 332 L 168 335 L 171 336 L 169 332 Z M 184 335 L 182 337 L 184 337 L 184 335 Z M 190 346 L 191 348 Q 192 345 190 346 Z M 244 372 Q 243 376 248 374 Q 249 370 244 372 Z M 248 374 L 248 376 L 254 376 L 254 378 Q 257 379 256 377 Q 254 373 248 374 Z M 264 380 L 266 384 Q 269 385 268 383 L 264 380 Z M 299 394 Q 296 399 300 398 L 302 400 L 299 394 Z M 316 400 L 315 403 L 316 403 L 316 400 Z M 305 422 Q 302 424 305 425 L 307 424 L 305 422 Z M 299 424 L 299 425 L 301 425 L 299 424 Z M 300 426 Q 299 429 302 428 Q 303 425 300 426 Z " /><path fill="rgb(170,42,192)" stroke="rgb(170,42,192)" stroke-width="1" opacity="0.996078431372549" d="M 160.5 318 L 161.5 320 Q 158.7 320.7 160.5 318 Z " /><path fill="rgb(170,42,192)" stroke="rgb(170,42,192)" stroke-width="1" opacity="0.996078431372549" d="M 167.5 318 L 170 319.5 L 166.5 320 L 167.5 318 Z " /><path fill="rgb(170,42,192)" stroke="rgb(170,42,192)" stroke-width="1" opacity="0.996078431372549" d="M 144.5 320 L 145.5 322 Q 142.7 322.7 144.5 320 Z " /><path fill="rgb(170,42,192)" stroke="rgb(170,42,192)" stroke-width="1" opacity="0.996078431372549" d="M 177.5 327 L 180 328.5 L 178 331.5 L 177 331.5 L 176 328.5 L 177.5 327 Z " /><path fill="rgb(170,42,192)" stroke="rgb(170,42,192)" stroke-width="1" opacity="0.996078431372549" d="M 94.5 336 L 94.5 338 L 96 338.5 L 95 340.5 L 95.5 342 L 93 337.5 L 94.5 336 Z " /><path fill="rgb(170,42,192)" stroke="rgb(170,42,192)" stroke-width="1" opacity="0.996078431372549" d="M 97.5 336 L 98.5 338 Q 95.7 338.7 97.5 336 Z " /><path fill="rgb(170,42,192)" stroke="rgb(170,42,192)" stroke-width="1" opacity="0.996078431372549" d="M 97.5 349 L 100 352.5 L 97 350.5 L 97.5 349 Z " /><path fill="rgb(170,42,192)" stroke="rgb(170,42,192)" stroke-width="1" opacity="0.996078431372549" d="M 107 354 Q 111.5 352.5 110 357 L 106 358 L 107 354 Z " /><path fill="rgb(170,42,192)" stroke="rgb(170,42,192)" stroke-width="1" opacity="0.996078431372549" d="M 214.5 356 Q 216.8 355.3 216 357.5 L 214.5 356 Z " /><path fill="rgb(170,42,192)" stroke="rgb(170,42,192)" stroke-width="1" opacity="0.996078431372549" d="M 118.5 379 L 119.5 381 L 118.5 379 Z " /><path fill="rgb(170,42,192)" stroke="rgb(170,42,192)" stroke-width="1" opacity="0.996078431372549" d="M 345.5 402 L 346 404.5 L 345 404.5 L 345.5 402 Z " /><path fill="rgb(170,42,192)" stroke="rgb(170,42,192)" stroke-width="1" opacity="0.996078431372549" d="M 350.5 407 Q 353.1 409.4 352 415.5 L 350 416.5 L 350.5 407 Z " /><path fill="rgb(170,42,192)" stroke="rgb(170,42,192)" stroke-width="1" opacity="0.996078431372549" d="M 158.5 412 L 159.5 414 L 158.5 412 Z " /><path fill="rgb(170,42,192)" stroke="rgb(170,42,192)" stroke-width="1" opacity="0.996078431372549" d="M 351.5 418 L 353.5 418 L 356 418 L 358 422 Q 363.3 420.8 362.5 424 L 374 424 Q 373 427 376 426 L 376 430 L 378 430 L 378 434 L 384 434 Q 382.8 430.3 388 432 Q 387 435 390 434 L 390 438 L 392 438 L 394 442 L 398 442 L 398 443.5 L 400 442.5 L 401.5 440 L 404 440 L 406 444 L 410 444 L 410 446 L 408 446.5 Q 409.6 449.5 415 448 L 416 454.5 L 417.5 456 L 418 444.5 L 419.5 441 L 420 452.5 L 423 464.5 L 423 480.5 L 422 484.5 Q 424.5 486 423 491.5 L 420 493 L 420 488 L 418.5 488 L 418.5 490 L 416 491.5 L 415 493.5 L 415.5 495 L 413 494 L 410 489.5 L 411.5 490 L 415.5 491 L 417 488.5 L 411.5 485 L 400.5 483 L 399 483.5 Q 399.7 480.9 397 482 L 396.5 484 L 395.5 482 L 400 480 Q 401.8 475.5 396.5 477 L 391.5 474 L 385 474 L 383.5 471 Q 381.3 471.8 382 469.5 Q 380.8 466.7 379.5 469 Q 377.3 468.3 378 470.5 L 376 473.5 Q 377.5 476.5 379 473.5 L 379.5 472 L 380 474 L 382 474.5 L 381 476.5 L 382 478.5 L 378.5 476 L 375 473.5 L 374.5 472 L 373 472.5 L 377 468.5 L 375.5 467 L 374.5 469 L 374 467 L 371 467 Q 372.1 464.3 369.5 465 L 369.5 467 L 367 466 Q 368.1 463.3 365.5 464 L 359 455.5 L 359.5 454 Q 357.3 454.8 358 452.5 L 350 437.5 L 350.5 435 Q 352.8 435.8 352 433.5 L 350.5 434 Q 347.9 434.8 349 431.5 L 348 430.5 L 348 422.5 L 349 419 L 351.5 418 Z M 366 432 L 366 434 L 374 434 Q 374 437 379 436 L 379 435 L 376 435 L 376 432 L 366 432 Z M 390 440 Q 389 443 392 442 Q 393 439 390 440 Z M 417 456 L 416 460 L 417 460 L 417 456 Z M 364 457 L 364 458 L 367 458 L 364 457 Z M 364 459 L 364 460 L 366 460 L 364 459 Z M 404 479 L 401 480 L 402 482 L 410 482 L 410 484 L 416 484 L 416 482 L 411 482 L 411 480 L 404 479 Z " /><path fill="rgb(170,42,192)" stroke="rgb(170,42,192)" stroke-width="1" opacity="0.996078431372549" d="M 290.5 430 L 291 432 L 294 433.5 L 292.5 433 L 290 431.5 L 290.5 430 Z " /><path fill="rgb(170,42,192)" stroke="rgb(170,42,192)" stroke-width="1" opacity="0.996078431372549" d="M 277.5 435 L 278.5 437 L 277.5 435 Z " /><path fill="rgb(170,42,192)" stroke="rgb(170,42,192)" stroke-width="1" opacity="0.996078431372549" d="M 281.5 435 L 285 435.5 L 281.5 436 L 281.5 435 Z " /><path fill="rgb(170,42,192)" stroke="rgb(170,42,192)" stroke-width="1" opacity="0.996078431372549" d="M 270.5 437 L 275 437.5 L 270.5 438 L 270.5 437 Z " /><path fill="rgb(170,42,192)" stroke="rgb(170,42,192)" stroke-width="1" opacity="0.996078431372549" d="M 264.5 438 L 267 438.5 L 264.5 439 L 264.5 438 Z " /><path fill="rgb(170,42,192)" stroke="rgb(170,42,192)" stroke-width="1" opacity="0.996078431372549" d="M 384.5 480 L 389 480.5 L 386.5 482 L 384.5 480 Z " /><path fill="rgb(170,42,192)" stroke="rgb(170,42,192)" stroke-width="1" opacity="0.996078431372549" d="M 389.5 483 L 392 484.5 L 390.5 484 L 389.5 483 Z " /><path fill="rgb(170,42,192)" stroke="rgb(170,42,192)" stroke-width="1" opacity="0.996078431372549" d="M 400 486 L 403 486 Q 401.9 488.7 404.5 488 L 405.5 490 L 403.5 489 L 402.5 490 Q 400.8 486.9 399 488.5 L 400 486 Z " /><path fill="rgb(170,42,192)" stroke="rgb(170,42,192)" stroke-width="1" opacity="0.996078431372549" d="M 419.5 495 L 423 495.5 L 419.5 496 L 419.5 495 Z " /><path fill="rgb(150,61,192)" stroke="rgb(150,61,192)" stroke-width="1" opacity="0.8823529411764706" d="M 74.5 166 L 76 256.5 L 76 258.5 L 75 263.5 L 76 266.5 L 76 268.5 L 76 282.5 L 77 283.5 L 78 297.5 L 87 328.5 L 102 358.5 L 124.5 387 L 127 388.5 L 129.5 392 L 133 394.5 Q 132.3 396.8 134.5 396 L 149.5 408 L 159 413 L 160.5 416 L 163.5 416 L 172.5 422 L 177.5 423 L 193 430.5 L 190.5 431 Q 146.5 414.5 118 382.5 L 97 353.5 L 87 333.5 L 78 306.5 L 78 301.5 L 74 282.5 L 74 271.5 L 73 270.5 Q 75.5 269 74 263.5 L 73 259.5 L 74 258.5 L 74 215.5 L 73 211.5 L 74 210.5 L 74.5 166 Z " /><path fill="rgb(150,61,192)" stroke="rgb(150,61,192)" stroke-width="1" opacity="0.8823529411764706" d="M 157.5 208 L 158 274.5 L 161 289.5 Q 166.2 305.8 175 318.5 L 189.5 334 L 196 338 Q 194.9 340.7 197.5 340 L 207.5 347 L 216.5 351 L 229.5 355 L 246.5 357 L 250.5 356 L 254.5 357 L 257.5 356 L 265.5 356 L 282.5 351 L 299.5 342 L 320 325 L 320 425.5 L 318.5 427 L 296.5 435 L 292.5 435 L 278.5 439 L 245.5 441 L 244.5 440 L 221.5 439 L 211 436.5 L 217.5 436 L 231.5 439 L 266.5 439 L 293.5 434 L 309.5 429 L 318 424.5 L 318 359.5 L 317 354.5 L 318 353.5 L 318 329.5 L 315.5 331 L 313 332.5 Q 313.8 334.8 311.5 334 L 305 339 L 302.5 343 Q 290 351.5 273.5 356 L 262.5 357 L 261.5 358 L 237.5 358 Q 199.3 351.2 179 326.5 Q 161.5 307 156 275.5 L 157 273.5 L 156 272.5 L 156 222.5 L 157 219.5 L 157.5 208 Z " /><path fill="rgb(150,61,192)" stroke="rgb(150,61,192)" stroke-width="1" opacity="0.8823529411764706" d="M 240.5 253 L 238 256.5 L 226 278.5 L 222 295.5 L 222 305 L 257.5 305 L 258.5 306 L 338.5 306 L 340.5 306 Q 342.8 305.3 342 307.5 L 343 308.5 L 343 379.5 L 344 380.5 L 344 401.5 L 345 402.5 L 347 425.5 Q 352.9 452.6 369.5 469 L 372 470.5 L 373.5 473 Q 392.9 490.5 423 496 L 423.5 348 L 424 356.5 L 425 357.5 L 425 496.5 L 421.5 498 L 401.5 492 L 389.5 486 Q 375.9 478.6 366 467.5 L 352 447.5 L 352 444.5 L 348 437.5 L 343 411.5 L 343 409.5 L 342 378.5 L 341 377.5 L 341 307 L 303.5 307 L 299.5 308 L 296.5 307 L 294.5 307 L 290.5 308 L 289.5 307 L 221.5 307 L 220 305.5 L 222 287.5 L 226 274.5 L 236 257.5 L 240.5 253 Z " /><path fill="rgb(150,61,192)" stroke="rgb(150,61,192)" stroke-width="1" opacity="0.8823529411764706" d="M 194.5 431 L 207.5 434 L 209 435.5 L 207.5 435 L 202.5 435 Q 201.1 432.4 196.5 433 L 194.5 431 Z " /></svg>